<mxfile host="app.diagrams.net" agent="Mozilla/5.0 (Windows NT 10.0; Win64; x64) AppleWebKit/537.36 (KHTML, like Gecko) Chrome/131.0.0.0 Safari/537.36 Edg/131.0.0.0" version="26.0.6">
  <diagram name="Page-1" id="Sr1n9E0ijlJAS5-XtALg">
    <mxGraphModel dx="1917" dy="2276" grid="1" gridSize="10" guides="1" tooltips="1" connect="1" arrows="1" fold="1" page="1" pageScale="1" pageWidth="850" pageHeight="1100" math="0" shadow="0">
      <root>
        <mxCell id="0" />
        <mxCell id="1" parent="0" />
        <mxCell id="YwNAG1RBIBUJRPn3ZiGR-1" value="Receipts" style="shape=table;startSize=30;container=1;collapsible=1;childLayout=tableLayout;fixedRows=1;rowLines=0;fontStyle=1;align=center;resizeLast=1;html=1;whiteSpace=wrap;fillColor=#d0cee2;strokeColor=#56517e;strokeWidth=5;" vertex="1" parent="1">
          <mxGeometry x="-199" y="180" width="520" height="450" as="geometry" />
        </mxCell>
        <mxCell id="YwNAG1RBIBUJRPn3ZiGR-43" style="shape=tableRow;horizontal=0;startSize=0;swimlaneHead=0;swimlaneBody=0;fillColor=none;collapsible=0;dropTarget=0;points=[[0,0.5],[1,0.5]];portConstraint=eastwest;top=0;left=0;right=0;bottom=0;html=1;" vertex="1" parent="YwNAG1RBIBUJRPn3ZiGR-1">
          <mxGeometry y="30" width="520" height="30" as="geometry" />
        </mxCell>
        <mxCell id="YwNAG1RBIBUJRPn3ZiGR-44" value="PK" style="shape=partialRectangle;connectable=0;fillColor=none;top=0;left=0;bottom=0;right=0;fontStyle=1;overflow=hidden;html=1;whiteSpace=wrap;" vertex="1" parent="YwNAG1RBIBUJRPn3ZiGR-43">
          <mxGeometry width="99" height="30" as="geometry">
            <mxRectangle width="99" height="30" as="alternateBounds" />
          </mxGeometry>
        </mxCell>
        <mxCell id="YwNAG1RBIBUJRPn3ZiGR-45" value="receipt_uuid" style="shape=partialRectangle;connectable=0;fillColor=none;top=0;left=0;bottom=0;right=0;align=left;spacingLeft=6;fontStyle=5;overflow=hidden;html=1;whiteSpace=wrap;" vertex="1" parent="YwNAG1RBIBUJRPn3ZiGR-43">
          <mxGeometry x="99" width="261" height="30" as="geometry">
            <mxRectangle width="261" height="30" as="alternateBounds" />
          </mxGeometry>
        </mxCell>
        <mxCell id="YwNAG1RBIBUJRPn3ZiGR-104" value="VARCHAR" style="shape=partialRectangle;connectable=0;fillColor=none;top=0;left=0;bottom=0;right=0;align=left;spacingLeft=6;fontStyle=5;overflow=hidden;html=1;whiteSpace=wrap;" vertex="1" parent="YwNAG1RBIBUJRPn3ZiGR-43">
          <mxGeometry x="360" width="160" height="30" as="geometry">
            <mxRectangle width="160" height="30" as="alternateBounds" />
          </mxGeometry>
        </mxCell>
        <mxCell id="YwNAG1RBIBUJRPn3ZiGR-40" style="shape=tableRow;horizontal=0;startSize=0;swimlaneHead=0;swimlaneBody=0;fillColor=none;collapsible=0;dropTarget=0;points=[[0,0.5],[1,0.5]];portConstraint=eastwest;top=0;left=0;right=0;bottom=1;html=1;" vertex="1" parent="YwNAG1RBIBUJRPn3ZiGR-1">
          <mxGeometry y="60" width="520" height="30" as="geometry" />
        </mxCell>
        <mxCell id="YwNAG1RBIBUJRPn3ZiGR-41" value="FK, NOT NULL" style="shape=partialRectangle;connectable=0;fillColor=none;top=0;left=0;bottom=0;right=0;fontStyle=1;overflow=hidden;html=1;whiteSpace=wrap;" vertex="1" parent="YwNAG1RBIBUJRPn3ZiGR-40">
          <mxGeometry width="99" height="30" as="geometry">
            <mxRectangle width="99" height="30" as="alternateBounds" />
          </mxGeometry>
        </mxCell>
        <mxCell id="YwNAG1RBIBUJRPn3ZiGR-42" value="user_id" style="shape=partialRectangle;connectable=0;fillColor=none;top=0;left=0;bottom=0;right=0;align=left;spacingLeft=6;fontStyle=5;overflow=hidden;html=1;whiteSpace=wrap;" vertex="1" parent="YwNAG1RBIBUJRPn3ZiGR-40">
          <mxGeometry x="99" width="261" height="30" as="geometry">
            <mxRectangle width="261" height="30" as="alternateBounds" />
          </mxGeometry>
        </mxCell>
        <mxCell id="YwNAG1RBIBUJRPn3ZiGR-107" value="VARCHAR" style="shape=partialRectangle;connectable=0;fillColor=none;top=0;left=0;bottom=0;right=0;align=left;spacingLeft=6;fontStyle=5;overflow=hidden;html=1;whiteSpace=wrap;" vertex="1" parent="YwNAG1RBIBUJRPn3ZiGR-40">
          <mxGeometry x="360" width="160" height="30" as="geometry">
            <mxRectangle width="160" height="30" as="alternateBounds" />
          </mxGeometry>
        </mxCell>
        <mxCell id="YwNAG1RBIBUJRPn3ZiGR-8" value="" style="shape=tableRow;horizontal=0;startSize=0;swimlaneHead=0;swimlaneBody=0;fillColor=none;collapsible=0;dropTarget=0;points=[[0,0.5],[1,0.5]];portConstraint=eastwest;top=0;left=0;right=0;bottom=0;html=1;" vertex="1" parent="YwNAG1RBIBUJRPn3ZiGR-1">
          <mxGeometry y="90" width="520" height="30" as="geometry" />
        </mxCell>
        <mxCell id="YwNAG1RBIBUJRPn3ZiGR-9" value="" style="shape=partialRectangle;connectable=0;fillColor=none;top=0;left=0;bottom=0;right=0;editable=1;overflow=hidden;html=1;whiteSpace=wrap;" vertex="1" parent="YwNAG1RBIBUJRPn3ZiGR-8">
          <mxGeometry width="99" height="30" as="geometry">
            <mxRectangle width="99" height="30" as="alternateBounds" />
          </mxGeometry>
        </mxCell>
        <mxCell id="YwNAG1RBIBUJRPn3ZiGR-10" value="bonus_points_earned" style="shape=partialRectangle;connectable=0;fillColor=none;top=0;left=0;bottom=0;right=0;align=left;spacingLeft=6;overflow=hidden;html=1;whiteSpace=wrap;" vertex="1" parent="YwNAG1RBIBUJRPn3ZiGR-8">
          <mxGeometry x="99" width="261" height="30" as="geometry">
            <mxRectangle width="261" height="30" as="alternateBounds" />
          </mxGeometry>
        </mxCell>
        <mxCell id="YwNAG1RBIBUJRPn3ZiGR-108" value="VARCHAR" style="shape=partialRectangle;connectable=0;fillColor=none;top=0;left=0;bottom=0;right=0;align=left;spacingLeft=6;overflow=hidden;html=1;whiteSpace=wrap;" vertex="1" parent="YwNAG1RBIBUJRPn3ZiGR-8">
          <mxGeometry x="360" width="160" height="30" as="geometry">
            <mxRectangle width="160" height="30" as="alternateBounds" />
          </mxGeometry>
        </mxCell>
        <mxCell id="YwNAG1RBIBUJRPn3ZiGR-11" value="" style="shape=tableRow;horizontal=0;startSize=0;swimlaneHead=0;swimlaneBody=0;fillColor=none;collapsible=0;dropTarget=0;points=[[0,0.5],[1,0.5]];portConstraint=eastwest;top=0;left=0;right=0;bottom=0;html=1;" vertex="1" parent="YwNAG1RBIBUJRPn3ZiGR-1">
          <mxGeometry y="120" width="520" height="30" as="geometry" />
        </mxCell>
        <mxCell id="YwNAG1RBIBUJRPn3ZiGR-12" value="" style="shape=partialRectangle;connectable=0;fillColor=none;top=0;left=0;bottom=0;right=0;editable=1;overflow=hidden;html=1;whiteSpace=wrap;" vertex="1" parent="YwNAG1RBIBUJRPn3ZiGR-11">
          <mxGeometry width="99" height="30" as="geometry">
            <mxRectangle width="99" height="30" as="alternateBounds" />
          </mxGeometry>
        </mxCell>
        <mxCell id="YwNAG1RBIBUJRPn3ZiGR-13" value="bonus_points_earned_reason" style="shape=partialRectangle;connectable=0;fillColor=none;top=0;left=0;bottom=0;right=0;align=left;spacingLeft=6;overflow=hidden;html=1;whiteSpace=wrap;" vertex="1" parent="YwNAG1RBIBUJRPn3ZiGR-11">
          <mxGeometry x="99" width="261" height="30" as="geometry">
            <mxRectangle width="261" height="30" as="alternateBounds" />
          </mxGeometry>
        </mxCell>
        <mxCell id="YwNAG1RBIBUJRPn3ZiGR-109" value="VARCHAR" style="shape=partialRectangle;connectable=0;fillColor=none;top=0;left=0;bottom=0;right=0;align=left;spacingLeft=6;overflow=hidden;html=1;whiteSpace=wrap;" vertex="1" parent="YwNAG1RBIBUJRPn3ZiGR-11">
          <mxGeometry x="360" width="160" height="30" as="geometry">
            <mxRectangle width="160" height="30" as="alternateBounds" />
          </mxGeometry>
        </mxCell>
        <mxCell id="YwNAG1RBIBUJRPn3ZiGR-126" style="shape=tableRow;horizontal=0;startSize=0;swimlaneHead=0;swimlaneBody=0;fillColor=none;collapsible=0;dropTarget=0;points=[[0,0.5],[1,0.5]];portConstraint=eastwest;top=0;left=0;right=0;bottom=0;html=1;" vertex="1" parent="YwNAG1RBIBUJRPn3ZiGR-1">
          <mxGeometry y="150" width="520" height="30" as="geometry" />
        </mxCell>
        <mxCell id="YwNAG1RBIBUJRPn3ZiGR-127" value="NOT NULL" style="shape=partialRectangle;connectable=0;fillColor=none;top=0;left=0;bottom=0;right=0;editable=1;overflow=hidden;html=1;whiteSpace=wrap;" vertex="1" parent="YwNAG1RBIBUJRPn3ZiGR-126">
          <mxGeometry width="99" height="30" as="geometry">
            <mxRectangle width="99" height="30" as="alternateBounds" />
          </mxGeometry>
        </mxCell>
        <mxCell id="YwNAG1RBIBUJRPn3ZiGR-128" value="create_date" style="shape=partialRectangle;connectable=0;fillColor=none;top=0;left=0;bottom=0;right=0;align=left;spacingLeft=6;overflow=hidden;html=1;whiteSpace=wrap;" vertex="1" parent="YwNAG1RBIBUJRPn3ZiGR-126">
          <mxGeometry x="99" width="261" height="30" as="geometry">
            <mxRectangle width="261" height="30" as="alternateBounds" />
          </mxGeometry>
        </mxCell>
        <mxCell id="YwNAG1RBIBUJRPn3ZiGR-129" value="INTEGER" style="shape=partialRectangle;connectable=0;fillColor=none;top=0;left=0;bottom=0;right=0;align=left;spacingLeft=6;overflow=hidden;html=1;whiteSpace=wrap;" vertex="1" parent="YwNAG1RBIBUJRPn3ZiGR-126">
          <mxGeometry x="360" width="160" height="30" as="geometry">
            <mxRectangle width="160" height="30" as="alternateBounds" />
          </mxGeometry>
        </mxCell>
        <mxCell id="YwNAG1RBIBUJRPn3ZiGR-122" style="shape=tableRow;horizontal=0;startSize=0;swimlaneHead=0;swimlaneBody=0;fillColor=none;collapsible=0;dropTarget=0;points=[[0,0.5],[1,0.5]];portConstraint=eastwest;top=0;left=0;right=0;bottom=0;html=1;" vertex="1" parent="YwNAG1RBIBUJRPn3ZiGR-1">
          <mxGeometry y="180" width="520" height="30" as="geometry" />
        </mxCell>
        <mxCell id="YwNAG1RBIBUJRPn3ZiGR-123" value="NOT NULL" style="shape=partialRectangle;connectable=0;fillColor=none;top=0;left=0;bottom=0;right=0;editable=1;overflow=hidden;html=1;whiteSpace=wrap;" vertex="1" parent="YwNAG1RBIBUJRPn3ZiGR-122">
          <mxGeometry width="99" height="30" as="geometry">
            <mxRectangle width="99" height="30" as="alternateBounds" />
          </mxGeometry>
        </mxCell>
        <mxCell id="YwNAG1RBIBUJRPn3ZiGR-124" value="date_scanned" style="shape=partialRectangle;connectable=0;fillColor=none;top=0;left=0;bottom=0;right=0;align=left;spacingLeft=6;overflow=hidden;html=1;whiteSpace=wrap;" vertex="1" parent="YwNAG1RBIBUJRPn3ZiGR-122">
          <mxGeometry x="99" width="261" height="30" as="geometry">
            <mxRectangle width="261" height="30" as="alternateBounds" />
          </mxGeometry>
        </mxCell>
        <mxCell id="YwNAG1RBIBUJRPn3ZiGR-125" value="INTEGER" style="shape=partialRectangle;connectable=0;fillColor=none;top=0;left=0;bottom=0;right=0;align=left;spacingLeft=6;overflow=hidden;html=1;whiteSpace=wrap;" vertex="1" parent="YwNAG1RBIBUJRPn3ZiGR-122">
          <mxGeometry x="360" width="160" height="30" as="geometry">
            <mxRectangle width="160" height="30" as="alternateBounds" />
          </mxGeometry>
        </mxCell>
        <mxCell id="YwNAG1RBIBUJRPn3ZiGR-118" style="shape=tableRow;horizontal=0;startSize=0;swimlaneHead=0;swimlaneBody=0;fillColor=none;collapsible=0;dropTarget=0;points=[[0,0.5],[1,0.5]];portConstraint=eastwest;top=0;left=0;right=0;bottom=0;html=1;" vertex="1" parent="YwNAG1RBIBUJRPn3ZiGR-1">
          <mxGeometry y="210" width="520" height="30" as="geometry" />
        </mxCell>
        <mxCell id="YwNAG1RBIBUJRPn3ZiGR-119" style="shape=partialRectangle;connectable=0;fillColor=none;top=0;left=0;bottom=0;right=0;editable=1;overflow=hidden;html=1;whiteSpace=wrap;" vertex="1" parent="YwNAG1RBIBUJRPn3ZiGR-118">
          <mxGeometry width="99" height="30" as="geometry">
            <mxRectangle width="99" height="30" as="alternateBounds" />
          </mxGeometry>
        </mxCell>
        <mxCell id="YwNAG1RBIBUJRPn3ZiGR-120" value="finished_date" style="shape=partialRectangle;connectable=0;fillColor=none;top=0;left=0;bottom=0;right=0;align=left;spacingLeft=6;overflow=hidden;html=1;whiteSpace=wrap;" vertex="1" parent="YwNAG1RBIBUJRPn3ZiGR-118">
          <mxGeometry x="99" width="261" height="30" as="geometry">
            <mxRectangle width="261" height="30" as="alternateBounds" />
          </mxGeometry>
        </mxCell>
        <mxCell id="YwNAG1RBIBUJRPn3ZiGR-121" value="INTEGER" style="shape=partialRectangle;connectable=0;fillColor=none;top=0;left=0;bottom=0;right=0;align=left;spacingLeft=6;overflow=hidden;html=1;whiteSpace=wrap;" vertex="1" parent="YwNAG1RBIBUJRPn3ZiGR-118">
          <mxGeometry x="360" width="160" height="30" as="geometry">
            <mxRectangle width="160" height="30" as="alternateBounds" />
          </mxGeometry>
        </mxCell>
        <mxCell id="YwNAG1RBIBUJRPn3ZiGR-114" style="shape=tableRow;horizontal=0;startSize=0;swimlaneHead=0;swimlaneBody=0;fillColor=none;collapsible=0;dropTarget=0;points=[[0,0.5],[1,0.5]];portConstraint=eastwest;top=0;left=0;right=0;bottom=0;html=1;" vertex="1" parent="YwNAG1RBIBUJRPn3ZiGR-1">
          <mxGeometry y="240" width="520" height="30" as="geometry" />
        </mxCell>
        <mxCell id="YwNAG1RBIBUJRPn3ZiGR-115" value="NOT NULL" style="shape=partialRectangle;connectable=0;fillColor=none;top=0;left=0;bottom=0;right=0;editable=1;overflow=hidden;html=1;whiteSpace=wrap;" vertex="1" parent="YwNAG1RBIBUJRPn3ZiGR-114">
          <mxGeometry width="99" height="30" as="geometry">
            <mxRectangle width="99" height="30" as="alternateBounds" />
          </mxGeometry>
        </mxCell>
        <mxCell id="YwNAG1RBIBUJRPn3ZiGR-116" value="modify_date" style="shape=partialRectangle;connectable=0;fillColor=none;top=0;left=0;bottom=0;right=0;align=left;spacingLeft=6;overflow=hidden;html=1;whiteSpace=wrap;" vertex="1" parent="YwNAG1RBIBUJRPn3ZiGR-114">
          <mxGeometry x="99" width="261" height="30" as="geometry">
            <mxRectangle width="261" height="30" as="alternateBounds" />
          </mxGeometry>
        </mxCell>
        <mxCell id="YwNAG1RBIBUJRPn3ZiGR-117" value="INTEGER" style="shape=partialRectangle;connectable=0;fillColor=none;top=0;left=0;bottom=0;right=0;align=left;spacingLeft=6;overflow=hidden;html=1;whiteSpace=wrap;" vertex="1" parent="YwNAG1RBIBUJRPn3ZiGR-114">
          <mxGeometry x="360" width="160" height="30" as="geometry">
            <mxRectangle width="160" height="30" as="alternateBounds" />
          </mxGeometry>
        </mxCell>
        <mxCell id="YwNAG1RBIBUJRPn3ZiGR-110" style="shape=tableRow;horizontal=0;startSize=0;swimlaneHead=0;swimlaneBody=0;fillColor=none;collapsible=0;dropTarget=0;points=[[0,0.5],[1,0.5]];portConstraint=eastwest;top=0;left=0;right=0;bottom=0;html=1;" vertex="1" parent="YwNAG1RBIBUJRPn3ZiGR-1">
          <mxGeometry y="270" width="520" height="30" as="geometry" />
        </mxCell>
        <mxCell id="YwNAG1RBIBUJRPn3ZiGR-111" style="shape=partialRectangle;connectable=0;fillColor=none;top=0;left=0;bottom=0;right=0;editable=1;overflow=hidden;html=1;whiteSpace=wrap;" vertex="1" parent="YwNAG1RBIBUJRPn3ZiGR-110">
          <mxGeometry width="99" height="30" as="geometry">
            <mxRectangle width="99" height="30" as="alternateBounds" />
          </mxGeometry>
        </mxCell>
        <mxCell id="YwNAG1RBIBUJRPn3ZiGR-112" value="points_awarded_date" style="shape=partialRectangle;connectable=0;fillColor=none;top=0;left=0;bottom=0;right=0;align=left;spacingLeft=6;overflow=hidden;html=1;whiteSpace=wrap;" vertex="1" parent="YwNAG1RBIBUJRPn3ZiGR-110">
          <mxGeometry x="99" width="261" height="30" as="geometry">
            <mxRectangle width="261" height="30" as="alternateBounds" />
          </mxGeometry>
        </mxCell>
        <mxCell id="YwNAG1RBIBUJRPn3ZiGR-113" value="INTEGER" style="shape=partialRectangle;connectable=0;fillColor=none;top=0;left=0;bottom=0;right=0;align=left;spacingLeft=6;overflow=hidden;html=1;whiteSpace=wrap;" vertex="1" parent="YwNAG1RBIBUJRPn3ZiGR-110">
          <mxGeometry x="360" width="160" height="30" as="geometry">
            <mxRectangle width="160" height="30" as="alternateBounds" />
          </mxGeometry>
        </mxCell>
        <mxCell id="YwNAG1RBIBUJRPn3ZiGR-142" style="shape=tableRow;horizontal=0;startSize=0;swimlaneHead=0;swimlaneBody=0;fillColor=none;collapsible=0;dropTarget=0;points=[[0,0.5],[1,0.5]];portConstraint=eastwest;top=0;left=0;right=0;bottom=0;html=1;" vertex="1" parent="YwNAG1RBIBUJRPn3ZiGR-1">
          <mxGeometry y="300" width="520" height="30" as="geometry" />
        </mxCell>
        <mxCell id="YwNAG1RBIBUJRPn3ZiGR-143" style="shape=partialRectangle;connectable=0;fillColor=none;top=0;left=0;bottom=0;right=0;editable=1;overflow=hidden;html=1;whiteSpace=wrap;" vertex="1" parent="YwNAG1RBIBUJRPn3ZiGR-142">
          <mxGeometry width="99" height="30" as="geometry">
            <mxRectangle width="99" height="30" as="alternateBounds" />
          </mxGeometry>
        </mxCell>
        <mxCell id="YwNAG1RBIBUJRPn3ZiGR-144" value="points_earned" style="shape=partialRectangle;connectable=0;fillColor=none;top=0;left=0;bottom=0;right=0;align=left;spacingLeft=6;overflow=hidden;html=1;whiteSpace=wrap;" vertex="1" parent="YwNAG1RBIBUJRPn3ZiGR-142">
          <mxGeometry x="99" width="261" height="30" as="geometry">
            <mxRectangle width="261" height="30" as="alternateBounds" />
          </mxGeometry>
        </mxCell>
        <mxCell id="YwNAG1RBIBUJRPn3ZiGR-145" value="DECIMAL(10,2)" style="shape=partialRectangle;connectable=0;fillColor=none;top=0;left=0;bottom=0;right=0;align=left;spacingLeft=6;overflow=hidden;html=1;whiteSpace=wrap;" vertex="1" parent="YwNAG1RBIBUJRPn3ZiGR-142">
          <mxGeometry x="360" width="160" height="30" as="geometry">
            <mxRectangle width="160" height="30" as="alternateBounds" />
          </mxGeometry>
        </mxCell>
        <mxCell id="YwNAG1RBIBUJRPn3ZiGR-138" style="shape=tableRow;horizontal=0;startSize=0;swimlaneHead=0;swimlaneBody=0;fillColor=none;collapsible=0;dropTarget=0;points=[[0,0.5],[1,0.5]];portConstraint=eastwest;top=0;left=0;right=0;bottom=0;html=1;" vertex="1" parent="YwNAG1RBIBUJRPn3ZiGR-1">
          <mxGeometry y="330" width="520" height="30" as="geometry" />
        </mxCell>
        <mxCell id="YwNAG1RBIBUJRPn3ZiGR-139" style="shape=partialRectangle;connectable=0;fillColor=none;top=0;left=0;bottom=0;right=0;editable=1;overflow=hidden;html=1;whiteSpace=wrap;" vertex="1" parent="YwNAG1RBIBUJRPn3ZiGR-138">
          <mxGeometry width="99" height="30" as="geometry">
            <mxRectangle width="99" height="30" as="alternateBounds" />
          </mxGeometry>
        </mxCell>
        <mxCell id="YwNAG1RBIBUJRPn3ZiGR-140" value="purchase_date" style="shape=partialRectangle;connectable=0;fillColor=none;top=0;left=0;bottom=0;right=0;align=left;spacingLeft=6;overflow=hidden;html=1;whiteSpace=wrap;" vertex="1" parent="YwNAG1RBIBUJRPn3ZiGR-138">
          <mxGeometry x="99" width="261" height="30" as="geometry">
            <mxRectangle width="261" height="30" as="alternateBounds" />
          </mxGeometry>
        </mxCell>
        <mxCell id="YwNAG1RBIBUJRPn3ZiGR-141" value="INTEGER" style="shape=partialRectangle;connectable=0;fillColor=none;top=0;left=0;bottom=0;right=0;align=left;spacingLeft=6;overflow=hidden;html=1;whiteSpace=wrap;" vertex="1" parent="YwNAG1RBIBUJRPn3ZiGR-138">
          <mxGeometry x="360" width="160" height="30" as="geometry">
            <mxRectangle width="160" height="30" as="alternateBounds" />
          </mxGeometry>
        </mxCell>
        <mxCell id="YwNAG1RBIBUJRPn3ZiGR-134" style="shape=tableRow;horizontal=0;startSize=0;swimlaneHead=0;swimlaneBody=0;fillColor=none;collapsible=0;dropTarget=0;points=[[0,0.5],[1,0.5]];portConstraint=eastwest;top=0;left=0;right=0;bottom=0;html=1;" vertex="1" parent="YwNAG1RBIBUJRPn3ZiGR-1">
          <mxGeometry y="360" width="520" height="30" as="geometry" />
        </mxCell>
        <mxCell id="YwNAG1RBIBUJRPn3ZiGR-135" style="shape=partialRectangle;connectable=0;fillColor=none;top=0;left=0;bottom=0;right=0;editable=1;overflow=hidden;html=1;whiteSpace=wrap;" vertex="1" parent="YwNAG1RBIBUJRPn3ZiGR-134">
          <mxGeometry width="99" height="30" as="geometry">
            <mxRectangle width="99" height="30" as="alternateBounds" />
          </mxGeometry>
        </mxCell>
        <mxCell id="YwNAG1RBIBUJRPn3ZiGR-136" value="purchased_item_count" style="shape=partialRectangle;connectable=0;fillColor=none;top=0;left=0;bottom=0;right=0;align=left;spacingLeft=6;overflow=hidden;html=1;whiteSpace=wrap;" vertex="1" parent="YwNAG1RBIBUJRPn3ZiGR-134">
          <mxGeometry x="99" width="261" height="30" as="geometry">
            <mxRectangle width="261" height="30" as="alternateBounds" />
          </mxGeometry>
        </mxCell>
        <mxCell id="YwNAG1RBIBUJRPn3ZiGR-137" value="INTEGER" style="shape=partialRectangle;connectable=0;fillColor=none;top=0;left=0;bottom=0;right=0;align=left;spacingLeft=6;overflow=hidden;html=1;whiteSpace=wrap;" vertex="1" parent="YwNAG1RBIBUJRPn3ZiGR-134">
          <mxGeometry x="360" width="160" height="30" as="geometry">
            <mxRectangle width="160" height="30" as="alternateBounds" />
          </mxGeometry>
        </mxCell>
        <mxCell id="YwNAG1RBIBUJRPn3ZiGR-170" style="shape=tableRow;horizontal=0;startSize=0;swimlaneHead=0;swimlaneBody=0;fillColor=none;collapsible=0;dropTarget=0;points=[[0,0.5],[1,0.5]];portConstraint=eastwest;top=0;left=0;right=0;bottom=0;html=1;" vertex="1" parent="YwNAG1RBIBUJRPn3ZiGR-1">
          <mxGeometry y="390" width="520" height="30" as="geometry" />
        </mxCell>
        <mxCell id="YwNAG1RBIBUJRPn3ZiGR-171" value="NOT NULL" style="shape=partialRectangle;connectable=0;fillColor=none;top=0;left=0;bottom=0;right=0;editable=1;overflow=hidden;html=1;whiteSpace=wrap;" vertex="1" parent="YwNAG1RBIBUJRPn3ZiGR-170">
          <mxGeometry width="99" height="30" as="geometry">
            <mxRectangle width="99" height="30" as="alternateBounds" />
          </mxGeometry>
        </mxCell>
        <mxCell id="YwNAG1RBIBUJRPn3ZiGR-172" value="rewards_receipt_status" style="shape=partialRectangle;connectable=0;fillColor=none;top=0;left=0;bottom=0;right=0;align=left;spacingLeft=6;overflow=hidden;html=1;whiteSpace=wrap;" vertex="1" parent="YwNAG1RBIBUJRPn3ZiGR-170">
          <mxGeometry x="99" width="261" height="30" as="geometry">
            <mxRectangle width="261" height="30" as="alternateBounds" />
          </mxGeometry>
        </mxCell>
        <mxCell id="YwNAG1RBIBUJRPn3ZiGR-173" value="VARCHAR" style="shape=partialRectangle;connectable=0;fillColor=none;top=0;left=0;bottom=0;right=0;align=left;spacingLeft=6;overflow=hidden;html=1;whiteSpace=wrap;" vertex="1" parent="YwNAG1RBIBUJRPn3ZiGR-170">
          <mxGeometry x="360" width="160" height="30" as="geometry">
            <mxRectangle width="160" height="30" as="alternateBounds" />
          </mxGeometry>
        </mxCell>
        <mxCell id="YwNAG1RBIBUJRPn3ZiGR-166" style="shape=tableRow;horizontal=0;startSize=0;swimlaneHead=0;swimlaneBody=0;fillColor=none;collapsible=0;dropTarget=0;points=[[0,0.5],[1,0.5]];portConstraint=eastwest;top=0;left=0;right=0;bottom=0;html=1;" vertex="1" parent="YwNAG1RBIBUJRPn3ZiGR-1">
          <mxGeometry y="420" width="520" height="30" as="geometry" />
        </mxCell>
        <mxCell id="YwNAG1RBIBUJRPn3ZiGR-167" style="shape=partialRectangle;connectable=0;fillColor=none;top=0;left=0;bottom=0;right=0;editable=1;overflow=hidden;html=1;whiteSpace=wrap;" vertex="1" parent="YwNAG1RBIBUJRPn3ZiGR-166">
          <mxGeometry width="99" height="30" as="geometry">
            <mxRectangle width="99" height="30" as="alternateBounds" />
          </mxGeometry>
        </mxCell>
        <mxCell id="YwNAG1RBIBUJRPn3ZiGR-168" value="total_spent" style="shape=partialRectangle;connectable=0;fillColor=none;top=0;left=0;bottom=0;right=0;align=left;spacingLeft=6;overflow=hidden;html=1;whiteSpace=wrap;" vertex="1" parent="YwNAG1RBIBUJRPn3ZiGR-166">
          <mxGeometry x="99" width="261" height="30" as="geometry">
            <mxRectangle width="261" height="30" as="alternateBounds" />
          </mxGeometry>
        </mxCell>
        <mxCell id="YwNAG1RBIBUJRPn3ZiGR-169" value="DECIMAL(10,2)" style="shape=partialRectangle;connectable=0;fillColor=none;top=0;left=0;bottom=0;right=0;align=left;spacingLeft=6;overflow=hidden;html=1;whiteSpace=wrap;" vertex="1" parent="YwNAG1RBIBUJRPn3ZiGR-166">
          <mxGeometry x="360" width="160" height="30" as="geometry">
            <mxRectangle width="160" height="30" as="alternateBounds" />
          </mxGeometry>
        </mxCell>
        <mxCell id="YwNAG1RBIBUJRPn3ZiGR-14" value="Users" style="shape=table;startSize=30;container=1;collapsible=1;childLayout=tableLayout;fixedRows=1;rowLines=0;fontStyle=1;align=center;resizeLast=1;html=1;whiteSpace=wrap;fillColor=#d5e8d4;strokeColor=#82b366;strokeWidth=5;" vertex="1" parent="1">
          <mxGeometry x="-50" y="-160" width="395" height="240" as="geometry" />
        </mxCell>
        <mxCell id="YwNAG1RBIBUJRPn3ZiGR-18" value="" style="shape=tableRow;horizontal=0;startSize=0;swimlaneHead=0;swimlaneBody=0;fillColor=none;collapsible=0;dropTarget=0;points=[[0,0.5],[1,0.5]];portConstraint=eastwest;top=0;left=0;right=0;bottom=1;html=1;" vertex="1" parent="YwNAG1RBIBUJRPn3ZiGR-14">
          <mxGeometry y="30" width="395" height="30" as="geometry" />
        </mxCell>
        <mxCell id="YwNAG1RBIBUJRPn3ZiGR-19" value="PK" style="shape=partialRectangle;connectable=0;fillColor=none;top=0;left=0;bottom=0;right=0;fontStyle=1;overflow=hidden;html=1;whiteSpace=wrap;" vertex="1" parent="YwNAG1RBIBUJRPn3ZiGR-18">
          <mxGeometry width="90" height="30" as="geometry">
            <mxRectangle width="90" height="30" as="alternateBounds" />
          </mxGeometry>
        </mxCell>
        <mxCell id="YwNAG1RBIBUJRPn3ZiGR-20" value="user_id" style="shape=partialRectangle;connectable=0;fillColor=none;top=0;left=0;bottom=0;right=0;align=left;spacingLeft=6;fontStyle=5;overflow=hidden;html=1;whiteSpace=wrap;" vertex="1" parent="YwNAG1RBIBUJRPn3ZiGR-18">
          <mxGeometry x="90" width="160" height="30" as="geometry">
            <mxRectangle width="160" height="30" as="alternateBounds" />
          </mxGeometry>
        </mxCell>
        <mxCell id="YwNAG1RBIBUJRPn3ZiGR-77" value="VARCHAR" style="shape=partialRectangle;connectable=0;fillColor=none;top=0;left=0;bottom=0;right=0;align=left;spacingLeft=6;fontStyle=5;overflow=hidden;html=1;whiteSpace=wrap;" vertex="1" parent="YwNAG1RBIBUJRPn3ZiGR-18">
          <mxGeometry x="250" width="145" height="30" as="geometry">
            <mxRectangle width="145" height="30" as="alternateBounds" />
          </mxGeometry>
        </mxCell>
        <mxCell id="YwNAG1RBIBUJRPn3ZiGR-21" value="" style="shape=tableRow;horizontal=0;startSize=0;swimlaneHead=0;swimlaneBody=0;fillColor=none;collapsible=0;dropTarget=0;points=[[0,0.5],[1,0.5]];portConstraint=eastwest;top=0;left=0;right=0;bottom=0;html=1;" vertex="1" parent="YwNAG1RBIBUJRPn3ZiGR-14">
          <mxGeometry y="60" width="395" height="30" as="geometry" />
        </mxCell>
        <mxCell id="YwNAG1RBIBUJRPn3ZiGR-22" value="NOT NULL" style="shape=partialRectangle;connectable=0;fillColor=none;top=0;left=0;bottom=0;right=0;editable=1;overflow=hidden;html=1;whiteSpace=wrap;" vertex="1" parent="YwNAG1RBIBUJRPn3ZiGR-21">
          <mxGeometry width="90" height="30" as="geometry">
            <mxRectangle width="90" height="30" as="alternateBounds" />
          </mxGeometry>
        </mxCell>
        <mxCell id="YwNAG1RBIBUJRPn3ZiGR-23" value="active" style="shape=partialRectangle;connectable=0;fillColor=none;top=0;left=0;bottom=0;right=0;align=left;spacingLeft=6;overflow=hidden;html=1;whiteSpace=wrap;" vertex="1" parent="YwNAG1RBIBUJRPn3ZiGR-21">
          <mxGeometry x="90" width="160" height="30" as="geometry">
            <mxRectangle width="160" height="30" as="alternateBounds" />
          </mxGeometry>
        </mxCell>
        <mxCell id="YwNAG1RBIBUJRPn3ZiGR-78" value="BOOL" style="shape=partialRectangle;connectable=0;fillColor=none;top=0;left=0;bottom=0;right=0;align=left;spacingLeft=6;overflow=hidden;html=1;whiteSpace=wrap;" vertex="1" parent="YwNAG1RBIBUJRPn3ZiGR-21">
          <mxGeometry x="250" width="145" height="30" as="geometry">
            <mxRectangle width="145" height="30" as="alternateBounds" />
          </mxGeometry>
        </mxCell>
        <mxCell id="YwNAG1RBIBUJRPn3ZiGR-64" style="shape=tableRow;horizontal=0;startSize=0;swimlaneHead=0;swimlaneBody=0;fillColor=none;collapsible=0;dropTarget=0;points=[[0,0.5],[1,0.5]];portConstraint=eastwest;top=0;left=0;right=0;bottom=0;html=1;" vertex="1" parent="YwNAG1RBIBUJRPn3ZiGR-14">
          <mxGeometry y="90" width="395" height="30" as="geometry" />
        </mxCell>
        <mxCell id="YwNAG1RBIBUJRPn3ZiGR-65" value="NOT NULL" style="shape=partialRectangle;connectable=0;fillColor=none;top=0;left=0;bottom=0;right=0;editable=1;overflow=hidden;html=1;whiteSpace=wrap;" vertex="1" parent="YwNAG1RBIBUJRPn3ZiGR-64">
          <mxGeometry width="90" height="30" as="geometry">
            <mxRectangle width="90" height="30" as="alternateBounds" />
          </mxGeometry>
        </mxCell>
        <mxCell id="YwNAG1RBIBUJRPn3ZiGR-66" value="created_date" style="shape=partialRectangle;connectable=0;fillColor=none;top=0;left=0;bottom=0;right=0;align=left;spacingLeft=6;overflow=hidden;html=1;whiteSpace=wrap;" vertex="1" parent="YwNAG1RBIBUJRPn3ZiGR-64">
          <mxGeometry x="90" width="160" height="30" as="geometry">
            <mxRectangle width="160" height="30" as="alternateBounds" />
          </mxGeometry>
        </mxCell>
        <mxCell id="YwNAG1RBIBUJRPn3ZiGR-79" value="INTEGER" style="shape=partialRectangle;connectable=0;fillColor=none;top=0;left=0;bottom=0;right=0;align=left;spacingLeft=6;overflow=hidden;html=1;whiteSpace=wrap;" vertex="1" parent="YwNAG1RBIBUJRPn3ZiGR-64">
          <mxGeometry x="250" width="145" height="30" as="geometry">
            <mxRectangle width="145" height="30" as="alternateBounds" />
          </mxGeometry>
        </mxCell>
        <mxCell id="YwNAG1RBIBUJRPn3ZiGR-67" style="shape=tableRow;horizontal=0;startSize=0;swimlaneHead=0;swimlaneBody=0;fillColor=none;collapsible=0;dropTarget=0;points=[[0,0.5],[1,0.5]];portConstraint=eastwest;top=0;left=0;right=0;bottom=0;html=1;" vertex="1" parent="YwNAG1RBIBUJRPn3ZiGR-14">
          <mxGeometry y="120" width="395" height="30" as="geometry" />
        </mxCell>
        <mxCell id="YwNAG1RBIBUJRPn3ZiGR-68" style="shape=partialRectangle;connectable=0;fillColor=none;top=0;left=0;bottom=0;right=0;editable=1;overflow=hidden;html=1;whiteSpace=wrap;" vertex="1" parent="YwNAG1RBIBUJRPn3ZiGR-67">
          <mxGeometry width="90" height="30" as="geometry">
            <mxRectangle width="90" height="30" as="alternateBounds" />
          </mxGeometry>
        </mxCell>
        <mxCell id="YwNAG1RBIBUJRPn3ZiGR-69" value="last_login" style="shape=partialRectangle;connectable=0;fillColor=none;top=0;left=0;bottom=0;right=0;align=left;spacingLeft=6;overflow=hidden;html=1;whiteSpace=wrap;" vertex="1" parent="YwNAG1RBIBUJRPn3ZiGR-67">
          <mxGeometry x="90" width="160" height="30" as="geometry">
            <mxRectangle width="160" height="30" as="alternateBounds" />
          </mxGeometry>
        </mxCell>
        <mxCell id="YwNAG1RBIBUJRPn3ZiGR-80" value="INTEGER" style="shape=partialRectangle;connectable=0;fillColor=none;top=0;left=0;bottom=0;right=0;align=left;spacingLeft=6;overflow=hidden;html=1;whiteSpace=wrap;" vertex="1" parent="YwNAG1RBIBUJRPn3ZiGR-67">
          <mxGeometry x="250" width="145" height="30" as="geometry">
            <mxRectangle width="145" height="30" as="alternateBounds" />
          </mxGeometry>
        </mxCell>
        <mxCell id="YwNAG1RBIBUJRPn3ZiGR-70" style="shape=tableRow;horizontal=0;startSize=0;swimlaneHead=0;swimlaneBody=0;fillColor=none;collapsible=0;dropTarget=0;points=[[0,0.5],[1,0.5]];portConstraint=eastwest;top=0;left=0;right=0;bottom=0;html=1;" vertex="1" parent="YwNAG1RBIBUJRPn3ZiGR-14">
          <mxGeometry y="150" width="395" height="30" as="geometry" />
        </mxCell>
        <mxCell id="YwNAG1RBIBUJRPn3ZiGR-71" value="CONST" style="shape=partialRectangle;connectable=0;fillColor=none;top=0;left=0;bottom=0;right=0;editable=1;overflow=hidden;html=1;whiteSpace=wrap;" vertex="1" parent="YwNAG1RBIBUJRPn3ZiGR-70">
          <mxGeometry width="90" height="30" as="geometry">
            <mxRectangle width="90" height="30" as="alternateBounds" />
          </mxGeometry>
        </mxCell>
        <mxCell id="YwNAG1RBIBUJRPn3ZiGR-72" value="role" style="shape=partialRectangle;connectable=0;fillColor=none;top=0;left=0;bottom=0;right=0;align=left;spacingLeft=6;overflow=hidden;html=1;whiteSpace=wrap;" vertex="1" parent="YwNAG1RBIBUJRPn3ZiGR-70">
          <mxGeometry x="90" width="160" height="30" as="geometry">
            <mxRectangle width="160" height="30" as="alternateBounds" />
          </mxGeometry>
        </mxCell>
        <mxCell id="YwNAG1RBIBUJRPn3ZiGR-81" value="VARCHAR" style="shape=partialRectangle;connectable=0;fillColor=none;top=0;left=0;bottom=0;right=0;align=left;spacingLeft=6;overflow=hidden;html=1;whiteSpace=wrap;" vertex="1" parent="YwNAG1RBIBUJRPn3ZiGR-70">
          <mxGeometry x="250" width="145" height="30" as="geometry">
            <mxRectangle width="145" height="30" as="alternateBounds" />
          </mxGeometry>
        </mxCell>
        <mxCell id="YwNAG1RBIBUJRPn3ZiGR-24" value="" style="shape=tableRow;horizontal=0;startSize=0;swimlaneHead=0;swimlaneBody=0;fillColor=none;collapsible=0;dropTarget=0;points=[[0,0.5],[1,0.5]];portConstraint=eastwest;top=0;left=0;right=0;bottom=0;html=1;" vertex="1" parent="YwNAG1RBIBUJRPn3ZiGR-14">
          <mxGeometry y="180" width="395" height="30" as="geometry" />
        </mxCell>
        <mxCell id="YwNAG1RBIBUJRPn3ZiGR-25" value="" style="shape=partialRectangle;connectable=0;fillColor=none;top=0;left=0;bottom=0;right=0;editable=1;overflow=hidden;html=1;whiteSpace=wrap;" vertex="1" parent="YwNAG1RBIBUJRPn3ZiGR-24">
          <mxGeometry width="90" height="30" as="geometry">
            <mxRectangle width="90" height="30" as="alternateBounds" />
          </mxGeometry>
        </mxCell>
        <mxCell id="YwNAG1RBIBUJRPn3ZiGR-26" value="sign_up_source" style="shape=partialRectangle;connectable=0;fillColor=none;top=0;left=0;bottom=0;right=0;align=left;spacingLeft=6;overflow=hidden;html=1;whiteSpace=wrap;" vertex="1" parent="YwNAG1RBIBUJRPn3ZiGR-24">
          <mxGeometry x="90" width="160" height="30" as="geometry">
            <mxRectangle width="160" height="30" as="alternateBounds" />
          </mxGeometry>
        </mxCell>
        <mxCell id="YwNAG1RBIBUJRPn3ZiGR-82" value="VARCHAR" style="shape=partialRectangle;connectable=0;fillColor=none;top=0;left=0;bottom=0;right=0;align=left;spacingLeft=6;overflow=hidden;html=1;whiteSpace=wrap;" vertex="1" parent="YwNAG1RBIBUJRPn3ZiGR-24">
          <mxGeometry x="250" width="145" height="30" as="geometry">
            <mxRectangle width="145" height="30" as="alternateBounds" />
          </mxGeometry>
        </mxCell>
        <mxCell id="YwNAG1RBIBUJRPn3ZiGR-73" style="shape=tableRow;horizontal=0;startSize=0;swimlaneHead=0;swimlaneBody=0;fillColor=none;collapsible=0;dropTarget=0;points=[[0,0.5],[1,0.5]];portConstraint=eastwest;top=0;left=0;right=0;bottom=0;html=1;" vertex="1" parent="YwNAG1RBIBUJRPn3ZiGR-14">
          <mxGeometry y="210" width="395" height="30" as="geometry" />
        </mxCell>
        <mxCell id="YwNAG1RBIBUJRPn3ZiGR-74" style="shape=partialRectangle;connectable=0;fillColor=none;top=0;left=0;bottom=0;right=0;editable=1;overflow=hidden;html=1;whiteSpace=wrap;" vertex="1" parent="YwNAG1RBIBUJRPn3ZiGR-73">
          <mxGeometry width="90" height="30" as="geometry">
            <mxRectangle width="90" height="30" as="alternateBounds" />
          </mxGeometry>
        </mxCell>
        <mxCell id="YwNAG1RBIBUJRPn3ZiGR-75" value="state" style="shape=partialRectangle;connectable=0;fillColor=none;top=0;left=0;bottom=0;right=0;align=left;spacingLeft=6;overflow=hidden;html=1;whiteSpace=wrap;" vertex="1" parent="YwNAG1RBIBUJRPn3ZiGR-73">
          <mxGeometry x="90" width="160" height="30" as="geometry">
            <mxRectangle width="160" height="30" as="alternateBounds" />
          </mxGeometry>
        </mxCell>
        <mxCell id="YwNAG1RBIBUJRPn3ZiGR-83" value="VARCHAR" style="shape=partialRectangle;connectable=0;fillColor=none;top=0;left=0;bottom=0;right=0;align=left;spacingLeft=6;overflow=hidden;html=1;whiteSpace=wrap;" vertex="1" parent="YwNAG1RBIBUJRPn3ZiGR-73">
          <mxGeometry x="250" width="145" height="30" as="geometry">
            <mxRectangle width="145" height="30" as="alternateBounds" />
          </mxGeometry>
        </mxCell>
        <mxCell id="YwNAG1RBIBUJRPn3ZiGR-27" value="Brands" style="shape=table;startSize=40;container=1;collapsible=1;childLayout=tableLayout;fixedRows=1;rowLines=0;fontStyle=1;align=center;resizeLast=1;html=1;whiteSpace=wrap;fillColor=#d5e8d4;strokeColor=#82b366;strokeWidth=5;" vertex="1" parent="1">
          <mxGeometry x="1510" y="-90" width="280" height="220" as="geometry" />
        </mxCell>
        <mxCell id="YwNAG1RBIBUJRPn3ZiGR-28" value="" style="shape=tableRow;horizontal=0;startSize=0;swimlaneHead=0;swimlaneBody=0;fillColor=none;collapsible=0;dropTarget=0;points=[[0,0.5],[1,0.5]];portConstraint=eastwest;top=0;left=0;right=0;bottom=0;html=1;" vertex="1" parent="YwNAG1RBIBUJRPn3ZiGR-27">
          <mxGeometry y="40" width="280" height="30" as="geometry" />
        </mxCell>
        <mxCell id="YwNAG1RBIBUJRPn3ZiGR-29" value="PK" style="shape=partialRectangle;connectable=0;fillColor=none;top=0;left=0;bottom=0;right=0;fontStyle=1;overflow=hidden;html=1;whiteSpace=wrap;" vertex="1" parent="YwNAG1RBIBUJRPn3ZiGR-28">
          <mxGeometry width="70" height="30" as="geometry">
            <mxRectangle width="70" height="30" as="alternateBounds" />
          </mxGeometry>
        </mxCell>
        <mxCell id="YwNAG1RBIBUJRPn3ZiGR-30" value="brand_uuid" style="shape=partialRectangle;connectable=0;fillColor=none;top=0;left=0;bottom=0;right=0;align=left;spacingLeft=6;fontStyle=5;overflow=hidden;html=1;whiteSpace=wrap;" vertex="1" parent="YwNAG1RBIBUJRPn3ZiGR-28">
          <mxGeometry x="70" width="120" height="30" as="geometry">
            <mxRectangle width="120" height="30" as="alternateBounds" />
          </mxGeometry>
        </mxCell>
        <mxCell id="YwNAG1RBIBUJRPn3ZiGR-174" value="VARCHAR" style="shape=partialRectangle;connectable=0;fillColor=none;top=0;left=0;bottom=0;right=0;align=left;spacingLeft=6;fontStyle=5;overflow=hidden;html=1;whiteSpace=wrap;" vertex="1" parent="YwNAG1RBIBUJRPn3ZiGR-28">
          <mxGeometry x="190" width="90" height="30" as="geometry">
            <mxRectangle width="90" height="30" as="alternateBounds" />
          </mxGeometry>
        </mxCell>
        <mxCell id="YwNAG1RBIBUJRPn3ZiGR-31" value="" style="shape=tableRow;horizontal=0;startSize=0;swimlaneHead=0;swimlaneBody=0;fillColor=none;collapsible=0;dropTarget=0;points=[[0,0.5],[1,0.5]];portConstraint=eastwest;top=0;left=0;right=0;bottom=1;html=1;" vertex="1" parent="YwNAG1RBIBUJRPn3ZiGR-27">
          <mxGeometry y="70" width="280" height="30" as="geometry" />
        </mxCell>
        <mxCell id="YwNAG1RBIBUJRPn3ZiGR-32" value="FK" style="shape=partialRectangle;connectable=0;fillColor=none;top=0;left=0;bottom=0;right=0;fontStyle=1;overflow=hidden;html=1;whiteSpace=wrap;" vertex="1" parent="YwNAG1RBIBUJRPn3ZiGR-31">
          <mxGeometry width="70" height="30" as="geometry">
            <mxRectangle width="70" height="30" as="alternateBounds" />
          </mxGeometry>
        </mxCell>
        <mxCell id="YwNAG1RBIBUJRPn3ZiGR-33" value="category_code" style="shape=partialRectangle;connectable=0;fillColor=none;top=0;left=0;bottom=0;right=0;align=left;spacingLeft=6;fontStyle=5;overflow=hidden;html=1;whiteSpace=wrap;" vertex="1" parent="YwNAG1RBIBUJRPn3ZiGR-31">
          <mxGeometry x="70" width="120" height="30" as="geometry">
            <mxRectangle width="120" height="30" as="alternateBounds" />
          </mxGeometry>
        </mxCell>
        <mxCell id="YwNAG1RBIBUJRPn3ZiGR-175" value="VARCHAR" style="shape=partialRectangle;connectable=0;fillColor=none;top=0;left=0;bottom=0;right=0;align=left;spacingLeft=6;fontStyle=5;overflow=hidden;html=1;whiteSpace=wrap;" vertex="1" parent="YwNAG1RBIBUJRPn3ZiGR-31">
          <mxGeometry x="190" width="90" height="30" as="geometry">
            <mxRectangle width="90" height="30" as="alternateBounds" />
          </mxGeometry>
        </mxCell>
        <mxCell id="YwNAG1RBIBUJRPn3ZiGR-34" value="" style="shape=tableRow;horizontal=0;startSize=0;swimlaneHead=0;swimlaneBody=0;fillColor=none;collapsible=0;dropTarget=0;points=[[0,0.5],[1,0.5]];portConstraint=eastwest;top=0;left=0;right=0;bottom=0;html=1;" vertex="1" parent="YwNAG1RBIBUJRPn3ZiGR-27">
          <mxGeometry y="100" width="280" height="30" as="geometry" />
        </mxCell>
        <mxCell id="YwNAG1RBIBUJRPn3ZiGR-35" value="UNIQUE, NOT NULL" style="shape=partialRectangle;connectable=0;fillColor=none;top=0;left=0;bottom=0;right=0;editable=1;overflow=hidden;html=1;whiteSpace=wrap;" vertex="1" parent="YwNAG1RBIBUJRPn3ZiGR-34">
          <mxGeometry width="70" height="30" as="geometry">
            <mxRectangle width="70" height="30" as="alternateBounds" />
          </mxGeometry>
        </mxCell>
        <mxCell id="YwNAG1RBIBUJRPn3ZiGR-36" value="barcode" style="shape=partialRectangle;connectable=0;fillColor=none;top=0;left=0;bottom=0;right=0;align=left;spacingLeft=6;overflow=hidden;html=1;whiteSpace=wrap;" vertex="1" parent="YwNAG1RBIBUJRPn3ZiGR-34">
          <mxGeometry x="70" width="120" height="30" as="geometry">
            <mxRectangle width="120" height="30" as="alternateBounds" />
          </mxGeometry>
        </mxCell>
        <mxCell id="YwNAG1RBIBUJRPn3ZiGR-176" style="shape=partialRectangle;connectable=0;fillColor=none;top=0;left=0;bottom=0;right=0;align=left;spacingLeft=6;overflow=hidden;html=1;whiteSpace=wrap;" vertex="1" parent="YwNAG1RBIBUJRPn3ZiGR-34">
          <mxGeometry x="190" width="90" height="30" as="geometry">
            <mxRectangle width="90" height="30" as="alternateBounds" />
          </mxGeometry>
        </mxCell>
        <mxCell id="YwNAG1RBIBUJRPn3ZiGR-178" style="shape=tableRow;horizontal=0;startSize=0;swimlaneHead=0;swimlaneBody=0;fillColor=none;collapsible=0;dropTarget=0;points=[[0,0.5],[1,0.5]];portConstraint=eastwest;top=0;left=0;right=0;bottom=0;html=1;" vertex="1" parent="YwNAG1RBIBUJRPn3ZiGR-27">
          <mxGeometry y="130" width="280" height="30" as="geometry" />
        </mxCell>
        <mxCell id="YwNAG1RBIBUJRPn3ZiGR-179" style="shape=partialRectangle;connectable=0;fillColor=none;top=0;left=0;bottom=0;right=0;editable=1;overflow=hidden;html=1;whiteSpace=wrap;" vertex="1" parent="YwNAG1RBIBUJRPn3ZiGR-178">
          <mxGeometry width="70" height="30" as="geometry">
            <mxRectangle width="70" height="30" as="alternateBounds" />
          </mxGeometry>
        </mxCell>
        <mxCell id="YwNAG1RBIBUJRPn3ZiGR-180" value="brand_code" style="shape=partialRectangle;connectable=0;fillColor=none;top=0;left=0;bottom=0;right=0;align=left;spacingLeft=6;overflow=hidden;html=1;whiteSpace=wrap;" vertex="1" parent="YwNAG1RBIBUJRPn3ZiGR-178">
          <mxGeometry x="70" width="120" height="30" as="geometry">
            <mxRectangle width="120" height="30" as="alternateBounds" />
          </mxGeometry>
        </mxCell>
        <mxCell id="YwNAG1RBIBUJRPn3ZiGR-181" value="VARCHAR" style="shape=partialRectangle;connectable=0;fillColor=none;top=0;left=0;bottom=0;right=0;align=left;spacingLeft=6;overflow=hidden;html=1;whiteSpace=wrap;" vertex="1" parent="YwNAG1RBIBUJRPn3ZiGR-178">
          <mxGeometry x="190" width="90" height="30" as="geometry">
            <mxRectangle width="90" height="30" as="alternateBounds" />
          </mxGeometry>
        </mxCell>
        <mxCell id="YwNAG1RBIBUJRPn3ZiGR-199" style="shape=tableRow;horizontal=0;startSize=0;swimlaneHead=0;swimlaneBody=0;fillColor=none;collapsible=0;dropTarget=0;points=[[0,0.5],[1,0.5]];portConstraint=eastwest;top=0;left=0;right=0;bottom=0;html=1;" vertex="1" parent="YwNAG1RBIBUJRPn3ZiGR-27">
          <mxGeometry y="160" width="280" height="30" as="geometry" />
        </mxCell>
        <mxCell id="YwNAG1RBIBUJRPn3ZiGR-200" style="shape=partialRectangle;connectable=0;fillColor=none;top=0;left=0;bottom=0;right=0;editable=1;overflow=hidden;html=1;whiteSpace=wrap;" vertex="1" parent="YwNAG1RBIBUJRPn3ZiGR-199">
          <mxGeometry width="70" height="30" as="geometry">
            <mxRectangle width="70" height="30" as="alternateBounds" />
          </mxGeometry>
        </mxCell>
        <mxCell id="YwNAG1RBIBUJRPn3ZiGR-201" value="brand_name" style="shape=partialRectangle;connectable=0;fillColor=none;top=0;left=0;bottom=0;right=0;align=left;spacingLeft=6;overflow=hidden;html=1;whiteSpace=wrap;" vertex="1" parent="YwNAG1RBIBUJRPn3ZiGR-199">
          <mxGeometry x="70" width="120" height="30" as="geometry">
            <mxRectangle width="120" height="30" as="alternateBounds" />
          </mxGeometry>
        </mxCell>
        <mxCell id="YwNAG1RBIBUJRPn3ZiGR-202" style="shape=partialRectangle;connectable=0;fillColor=none;top=0;left=0;bottom=0;right=0;align=left;spacingLeft=6;overflow=hidden;html=1;whiteSpace=wrap;" vertex="1" parent="YwNAG1RBIBUJRPn3ZiGR-199">
          <mxGeometry x="190" width="90" height="30" as="geometry">
            <mxRectangle width="90" height="30" as="alternateBounds" />
          </mxGeometry>
        </mxCell>
        <mxCell id="YwNAG1RBIBUJRPn3ZiGR-37" value="" style="shape=tableRow;horizontal=0;startSize=0;swimlaneHead=0;swimlaneBody=0;fillColor=none;collapsible=0;dropTarget=0;points=[[0,0.5],[1,0.5]];portConstraint=eastwest;top=0;left=0;right=0;bottom=0;html=1;" vertex="1" parent="YwNAG1RBIBUJRPn3ZiGR-27">
          <mxGeometry y="190" width="280" height="30" as="geometry" />
        </mxCell>
        <mxCell id="YwNAG1RBIBUJRPn3ZiGR-38" value="" style="shape=partialRectangle;connectable=0;fillColor=none;top=0;left=0;bottom=0;right=0;editable=1;overflow=hidden;html=1;whiteSpace=wrap;" vertex="1" parent="YwNAG1RBIBUJRPn3ZiGR-37">
          <mxGeometry width="70" height="30" as="geometry">
            <mxRectangle width="70" height="30" as="alternateBounds" />
          </mxGeometry>
        </mxCell>
        <mxCell id="YwNAG1RBIBUJRPn3ZiGR-39" value="top_brand" style="shape=partialRectangle;connectable=0;fillColor=none;top=0;left=0;bottom=0;right=0;align=left;spacingLeft=6;overflow=hidden;html=1;whiteSpace=wrap;" vertex="1" parent="YwNAG1RBIBUJRPn3ZiGR-37">
          <mxGeometry x="70" width="120" height="30" as="geometry">
            <mxRectangle width="120" height="30" as="alternateBounds" />
          </mxGeometry>
        </mxCell>
        <mxCell id="YwNAG1RBIBUJRPn3ZiGR-177" value="BOOLEAN" style="shape=partialRectangle;connectable=0;fillColor=none;top=0;left=0;bottom=0;right=0;align=left;spacingLeft=6;overflow=hidden;html=1;whiteSpace=wrap;" vertex="1" parent="YwNAG1RBIBUJRPn3ZiGR-37">
          <mxGeometry x="190" width="90" height="30" as="geometry">
            <mxRectangle width="90" height="30" as="alternateBounds" />
          </mxGeometry>
        </mxCell>
        <mxCell id="YwNAG1RBIBUJRPn3ZiGR-85" value="Category" style="shape=table;startSize=30;container=1;collapsible=1;childLayout=tableLayout;fixedRows=1;rowLines=0;fontStyle=1;align=center;resizeLast=1;html=1;whiteSpace=wrap;fillColor=#d5e8d4;strokeColor=#82b366;strokeWidth=5;" vertex="1" parent="1">
          <mxGeometry x="1100" y="-250" width="300" height="150" as="geometry" />
        </mxCell>
        <mxCell id="YwNAG1RBIBUJRPn3ZiGR-86" style="shape=tableRow;horizontal=0;startSize=0;swimlaneHead=0;swimlaneBody=0;fillColor=none;collapsible=0;dropTarget=0;points=[[0,0.5],[1,0.5]];portConstraint=eastwest;top=0;left=0;right=0;bottom=0;html=1;" vertex="1" parent="YwNAG1RBIBUJRPn3ZiGR-85">
          <mxGeometry y="30" width="300" height="30" as="geometry" />
        </mxCell>
        <mxCell id="YwNAG1RBIBUJRPn3ZiGR-87" value="PK" style="shape=partialRectangle;connectable=0;fillColor=none;top=0;left=0;bottom=0;right=0;fontStyle=1;overflow=hidden;html=1;whiteSpace=wrap;" vertex="1" parent="YwNAG1RBIBUJRPn3ZiGR-86">
          <mxGeometry width="60" height="30" as="geometry">
            <mxRectangle width="60" height="30" as="alternateBounds" />
          </mxGeometry>
        </mxCell>
        <mxCell id="YwNAG1RBIBUJRPn3ZiGR-88" value="Category_code" style="shape=partialRectangle;connectable=0;fillColor=none;top=0;left=0;bottom=0;right=0;align=left;spacingLeft=6;fontStyle=5;overflow=hidden;html=1;whiteSpace=wrap;" vertex="1" parent="YwNAG1RBIBUJRPn3ZiGR-86">
          <mxGeometry x="60" width="120" height="30" as="geometry">
            <mxRectangle width="120" height="30" as="alternateBounds" />
          </mxGeometry>
        </mxCell>
        <mxCell id="YwNAG1RBIBUJRPn3ZiGR-206" value="VARCHAR" style="shape=partialRectangle;connectable=0;fillColor=none;top=0;left=0;bottom=0;right=0;align=left;spacingLeft=6;fontStyle=5;overflow=hidden;html=1;whiteSpace=wrap;" vertex="1" parent="YwNAG1RBIBUJRPn3ZiGR-86">
          <mxGeometry x="180" width="120" height="30" as="geometry">
            <mxRectangle width="120" height="30" as="alternateBounds" />
          </mxGeometry>
        </mxCell>
        <mxCell id="YwNAG1RBIBUJRPn3ZiGR-95" style="shape=tableRow;horizontal=0;startSize=0;swimlaneHead=0;swimlaneBody=0;fillColor=none;collapsible=0;dropTarget=0;points=[[0,0.5],[1,0.5]];portConstraint=eastwest;top=0;left=0;right=0;bottom=1;html=1;" vertex="1" parent="YwNAG1RBIBUJRPn3ZiGR-85">
          <mxGeometry y="60" width="300" height="30" as="geometry" />
        </mxCell>
        <mxCell id="YwNAG1RBIBUJRPn3ZiGR-96" value="FK" style="shape=partialRectangle;connectable=0;fillColor=none;top=0;left=0;bottom=0;right=0;fontStyle=1;overflow=hidden;html=1;whiteSpace=wrap;" vertex="1" parent="YwNAG1RBIBUJRPn3ZiGR-95">
          <mxGeometry width="60" height="30" as="geometry">
            <mxRectangle width="60" height="30" as="alternateBounds" />
          </mxGeometry>
        </mxCell>
        <mxCell id="YwNAG1RBIBUJRPn3ZiGR-97" value="cpg_id" style="shape=partialRectangle;connectable=0;fillColor=none;top=0;left=0;bottom=0;right=0;align=left;spacingLeft=6;fontStyle=5;overflow=hidden;html=1;whiteSpace=wrap;" vertex="1" parent="YwNAG1RBIBUJRPn3ZiGR-95">
          <mxGeometry x="60" width="120" height="30" as="geometry">
            <mxRectangle width="120" height="30" as="alternateBounds" />
          </mxGeometry>
        </mxCell>
        <mxCell id="YwNAG1RBIBUJRPn3ZiGR-207" value="VARCHAR" style="shape=partialRectangle;connectable=0;fillColor=none;top=0;left=0;bottom=0;right=0;align=left;spacingLeft=6;fontStyle=5;overflow=hidden;html=1;whiteSpace=wrap;" vertex="1" parent="YwNAG1RBIBUJRPn3ZiGR-95">
          <mxGeometry x="180" width="120" height="30" as="geometry">
            <mxRectangle width="120" height="30" as="alternateBounds" />
          </mxGeometry>
        </mxCell>
        <mxCell id="YwNAG1RBIBUJRPn3ZiGR-98" value="" style="shape=tableRow;horizontal=0;startSize=0;swimlaneHead=0;swimlaneBody=0;fillColor=none;collapsible=0;dropTarget=0;points=[[0,0.5],[1,0.5]];portConstraint=eastwest;top=0;left=0;right=0;bottom=0;html=1;" vertex="1" parent="YwNAG1RBIBUJRPn3ZiGR-85">
          <mxGeometry y="90" width="300" height="30" as="geometry" />
        </mxCell>
        <mxCell id="YwNAG1RBIBUJRPn3ZiGR-99" value="" style="shape=partialRectangle;connectable=0;fillColor=none;top=0;left=0;bottom=0;right=0;editable=1;overflow=hidden;html=1;whiteSpace=wrap;" vertex="1" parent="YwNAG1RBIBUJRPn3ZiGR-98">
          <mxGeometry width="60" height="30" as="geometry">
            <mxRectangle width="60" height="30" as="alternateBounds" />
          </mxGeometry>
        </mxCell>
        <mxCell id="YwNAG1RBIBUJRPn3ZiGR-100" value="category_name" style="shape=partialRectangle;connectable=0;fillColor=none;top=0;left=0;bottom=0;right=0;align=left;spacingLeft=6;overflow=hidden;html=1;whiteSpace=wrap;" vertex="1" parent="YwNAG1RBIBUJRPn3ZiGR-98">
          <mxGeometry x="60" width="120" height="30" as="geometry">
            <mxRectangle width="120" height="30" as="alternateBounds" />
          </mxGeometry>
        </mxCell>
        <mxCell id="YwNAG1RBIBUJRPn3ZiGR-208" value="VARCHAR" style="shape=partialRectangle;connectable=0;fillColor=none;top=0;left=0;bottom=0;right=0;align=left;spacingLeft=6;overflow=hidden;html=1;whiteSpace=wrap;" vertex="1" parent="YwNAG1RBIBUJRPn3ZiGR-98">
          <mxGeometry x="180" width="120" height="30" as="geometry">
            <mxRectangle width="120" height="30" as="alternateBounds" />
          </mxGeometry>
        </mxCell>
        <mxCell id="YwNAG1RBIBUJRPn3ZiGR-320" style="shape=tableRow;horizontal=0;startSize=0;swimlaneHead=0;swimlaneBody=0;fillColor=none;collapsible=0;dropTarget=0;points=[[0,0.5],[1,0.5]];portConstraint=eastwest;top=0;left=0;right=0;bottom=0;html=1;" vertex="1" parent="YwNAG1RBIBUJRPn3ZiGR-85">
          <mxGeometry y="120" width="300" height="30" as="geometry" />
        </mxCell>
        <mxCell id="YwNAG1RBIBUJRPn3ZiGR-321" style="shape=partialRectangle;connectable=0;fillColor=none;top=0;left=0;bottom=0;right=0;editable=1;overflow=hidden;html=1;whiteSpace=wrap;" vertex="1" parent="YwNAG1RBIBUJRPn3ZiGR-320">
          <mxGeometry width="60" height="30" as="geometry">
            <mxRectangle width="60" height="30" as="alternateBounds" />
          </mxGeometry>
        </mxCell>
        <mxCell id="YwNAG1RBIBUJRPn3ZiGR-322" value="description" style="shape=partialRectangle;connectable=0;fillColor=none;top=0;left=0;bottom=0;right=0;align=left;spacingLeft=6;overflow=hidden;html=1;whiteSpace=wrap;" vertex="1" parent="YwNAG1RBIBUJRPn3ZiGR-320">
          <mxGeometry x="60" width="120" height="30" as="geometry">
            <mxRectangle width="120" height="30" as="alternateBounds" />
          </mxGeometry>
        </mxCell>
        <mxCell id="YwNAG1RBIBUJRPn3ZiGR-323" value="VARCHAR" style="shape=partialRectangle;connectable=0;fillColor=none;top=0;left=0;bottom=0;right=0;align=left;spacingLeft=6;overflow=hidden;html=1;whiteSpace=wrap;" vertex="1" parent="YwNAG1RBIBUJRPn3ZiGR-320">
          <mxGeometry x="180" width="120" height="30" as="geometry">
            <mxRectangle width="120" height="30" as="alternateBounds" />
          </mxGeometry>
        </mxCell>
        <mxCell id="YwNAG1RBIBUJRPn3ZiGR-182" value="CPG" style="shape=table;startSize=30;container=1;collapsible=1;childLayout=tableLayout;fixedRows=1;rowLines=0;fontStyle=1;align=center;resizeLast=1;html=1;whiteSpace=wrap;fillColor=#d5e8d4;strokeColor=#82b366;strokeWidth=5;" vertex="1" parent="1">
          <mxGeometry x="680" y="-250" width="300" height="120" as="geometry" />
        </mxCell>
        <mxCell id="YwNAG1RBIBUJRPn3ZiGR-183" style="shape=tableRow;horizontal=0;startSize=0;swimlaneHead=0;swimlaneBody=0;fillColor=none;collapsible=0;dropTarget=0;points=[[0,0.5],[1,0.5]];portConstraint=eastwest;top=0;left=0;right=0;bottom=0;html=1;" vertex="1" parent="YwNAG1RBIBUJRPn3ZiGR-182">
          <mxGeometry y="30" width="300" height="30" as="geometry" />
        </mxCell>
        <mxCell id="YwNAG1RBIBUJRPn3ZiGR-184" value="PK" style="shape=partialRectangle;connectable=0;fillColor=none;top=0;left=0;bottom=0;right=0;fontStyle=1;overflow=hidden;html=1;whiteSpace=wrap;" vertex="1" parent="YwNAG1RBIBUJRPn3ZiGR-183">
          <mxGeometry width="60" height="30" as="geometry">
            <mxRectangle width="60" height="30" as="alternateBounds" />
          </mxGeometry>
        </mxCell>
        <mxCell id="YwNAG1RBIBUJRPn3ZiGR-185" value="cpg_id" style="shape=partialRectangle;connectable=0;fillColor=none;top=0;left=0;bottom=0;right=0;align=left;spacingLeft=6;fontStyle=5;overflow=hidden;html=1;whiteSpace=wrap;" vertex="1" parent="YwNAG1RBIBUJRPn3ZiGR-183">
          <mxGeometry x="60" width="120" height="30" as="geometry">
            <mxRectangle width="120" height="30" as="alternateBounds" />
          </mxGeometry>
        </mxCell>
        <mxCell id="YwNAG1RBIBUJRPn3ZiGR-195" value="VARCHAR" style="shape=partialRectangle;connectable=0;fillColor=none;top=0;left=0;bottom=0;right=0;align=left;spacingLeft=6;fontStyle=5;overflow=hidden;html=1;whiteSpace=wrap;" vertex="1" parent="YwNAG1RBIBUJRPn3ZiGR-183">
          <mxGeometry x="180" width="120" height="30" as="geometry">
            <mxRectangle width="120" height="30" as="alternateBounds" />
          </mxGeometry>
        </mxCell>
        <mxCell id="YwNAG1RBIBUJRPn3ZiGR-186" style="shape=tableRow;horizontal=0;startSize=0;swimlaneHead=0;swimlaneBody=0;fillColor=none;collapsible=0;dropTarget=0;points=[[0,0.5],[1,0.5]];portConstraint=eastwest;top=0;left=0;right=0;bottom=1;html=1;" vertex="1" parent="YwNAG1RBIBUJRPn3ZiGR-182">
          <mxGeometry y="60" width="300" height="30" as="geometry" />
        </mxCell>
        <mxCell id="YwNAG1RBIBUJRPn3ZiGR-187" style="shape=partialRectangle;connectable=0;fillColor=none;top=0;left=0;bottom=0;right=0;fontStyle=1;overflow=hidden;html=1;whiteSpace=wrap;" vertex="1" parent="YwNAG1RBIBUJRPn3ZiGR-186">
          <mxGeometry width="60" height="30" as="geometry">
            <mxRectangle width="60" height="30" as="alternateBounds" />
          </mxGeometry>
        </mxCell>
        <mxCell id="YwNAG1RBIBUJRPn3ZiGR-188" style="shape=partialRectangle;connectable=0;fillColor=none;top=0;left=0;bottom=0;right=0;align=left;spacingLeft=6;fontStyle=5;overflow=hidden;html=1;whiteSpace=wrap;" vertex="1" parent="YwNAG1RBIBUJRPn3ZiGR-186">
          <mxGeometry x="60" width="120" height="30" as="geometry">
            <mxRectangle width="120" height="30" as="alternateBounds" />
          </mxGeometry>
        </mxCell>
        <mxCell id="YwNAG1RBIBUJRPn3ZiGR-196" style="shape=partialRectangle;connectable=0;fillColor=none;top=0;left=0;bottom=0;right=0;align=left;spacingLeft=6;fontStyle=5;overflow=hidden;html=1;whiteSpace=wrap;" vertex="1" parent="YwNAG1RBIBUJRPn3ZiGR-186">
          <mxGeometry x="180" width="120" height="30" as="geometry">
            <mxRectangle width="120" height="30" as="alternateBounds" />
          </mxGeometry>
        </mxCell>
        <mxCell id="YwNAG1RBIBUJRPn3ZiGR-189" value="" style="shape=tableRow;horizontal=0;startSize=0;swimlaneHead=0;swimlaneBody=0;fillColor=none;collapsible=0;dropTarget=0;points=[[0,0.5],[1,0.5]];portConstraint=eastwest;top=0;left=0;right=0;bottom=0;html=1;" vertex="1" parent="YwNAG1RBIBUJRPn3ZiGR-182">
          <mxGeometry y="90" width="300" height="30" as="geometry" />
        </mxCell>
        <mxCell id="YwNAG1RBIBUJRPn3ZiGR-190" value="" style="shape=partialRectangle;connectable=0;fillColor=none;top=0;left=0;bottom=0;right=0;editable=1;overflow=hidden;html=1;whiteSpace=wrap;" vertex="1" parent="YwNAG1RBIBUJRPn3ZiGR-189">
          <mxGeometry width="60" height="30" as="geometry">
            <mxRectangle width="60" height="30" as="alternateBounds" />
          </mxGeometry>
        </mxCell>
        <mxCell id="YwNAG1RBIBUJRPn3ZiGR-191" value="cpg_reference" style="shape=partialRectangle;connectable=0;fillColor=none;top=0;left=0;bottom=0;right=0;align=left;spacingLeft=6;overflow=hidden;html=1;whiteSpace=wrap;" vertex="1" parent="YwNAG1RBIBUJRPn3ZiGR-189">
          <mxGeometry x="60" width="120" height="30" as="geometry">
            <mxRectangle width="120" height="30" as="alternateBounds" />
          </mxGeometry>
        </mxCell>
        <mxCell id="YwNAG1RBIBUJRPn3ZiGR-197" value="VARCHAR" style="shape=partialRectangle;connectable=0;fillColor=none;top=0;left=0;bottom=0;right=0;align=left;spacingLeft=6;overflow=hidden;html=1;whiteSpace=wrap;" vertex="1" parent="YwNAG1RBIBUJRPn3ZiGR-189">
          <mxGeometry x="180" width="120" height="30" as="geometry">
            <mxRectangle width="120" height="30" as="alternateBounds" />
          </mxGeometry>
        </mxCell>
        <mxCell id="YwNAG1RBIBUJRPn3ZiGR-212" value="products" style="shape=table;startSize=30;container=1;collapsible=1;childLayout=tableLayout;fixedRows=1;rowLines=0;fontStyle=1;align=center;resizeLast=1;html=1;whiteSpace=wrap;fillColor=#d5e8d4;strokeColor=#82b366;strokeWidth=5;" vertex="1" parent="1">
          <mxGeometry x="1280" y="290" width="385" height="390" as="geometry" />
        </mxCell>
        <mxCell id="YwNAG1RBIBUJRPn3ZiGR-213" style="shape=tableRow;horizontal=0;startSize=0;swimlaneHead=0;swimlaneBody=0;fillColor=none;collapsible=0;dropTarget=0;points=[[0,0.5],[1,0.5]];portConstraint=eastwest;top=0;left=0;right=0;bottom=0;html=1;" vertex="1" parent="YwNAG1RBIBUJRPn3ZiGR-212">
          <mxGeometry y="30" width="385" height="30" as="geometry" />
        </mxCell>
        <mxCell id="YwNAG1RBIBUJRPn3ZiGR-214" value="PK" style="shape=partialRectangle;connectable=0;fillColor=none;top=0;left=0;bottom=0;right=0;fontStyle=1;overflow=hidden;html=1;whiteSpace=wrap;" vertex="1" parent="YwNAG1RBIBUJRPn3ZiGR-213">
          <mxGeometry width="60" height="30" as="geometry">
            <mxRectangle width="60" height="30" as="alternateBounds" />
          </mxGeometry>
        </mxCell>
        <mxCell id="YwNAG1RBIBUJRPn3ZiGR-215" value="product_id" style="shape=partialRectangle;connectable=0;fillColor=none;top=0;left=0;bottom=0;right=0;align=left;spacingLeft=6;fontStyle=5;overflow=hidden;html=1;whiteSpace=wrap;" vertex="1" parent="YwNAG1RBIBUJRPn3ZiGR-213">
          <mxGeometry x="60" width="190" height="30" as="geometry">
            <mxRectangle width="190" height="30" as="alternateBounds" />
          </mxGeometry>
        </mxCell>
        <mxCell id="YwNAG1RBIBUJRPn3ZiGR-216" value="VARCHAR" style="shape=partialRectangle;connectable=0;fillColor=none;top=0;left=0;bottom=0;right=0;align=left;spacingLeft=6;fontStyle=5;overflow=hidden;html=1;whiteSpace=wrap;" vertex="1" parent="YwNAG1RBIBUJRPn3ZiGR-213">
          <mxGeometry x="250" width="135" height="30" as="geometry">
            <mxRectangle width="135" height="30" as="alternateBounds" />
          </mxGeometry>
        </mxCell>
        <mxCell id="YwNAG1RBIBUJRPn3ZiGR-217" style="shape=tableRow;horizontal=0;startSize=0;swimlaneHead=0;swimlaneBody=0;fillColor=none;collapsible=0;dropTarget=0;points=[[0,0.5],[1,0.5]];portConstraint=eastwest;top=0;left=0;right=0;bottom=1;html=1;" vertex="1" parent="YwNAG1RBIBUJRPn3ZiGR-212">
          <mxGeometry y="60" width="385" height="30" as="geometry" />
        </mxCell>
        <mxCell id="YwNAG1RBIBUJRPn3ZiGR-218" value="FK" style="shape=partialRectangle;connectable=0;fillColor=none;top=0;left=0;bottom=0;right=0;fontStyle=1;overflow=hidden;html=1;whiteSpace=wrap;" vertex="1" parent="YwNAG1RBIBUJRPn3ZiGR-217">
          <mxGeometry width="60" height="30" as="geometry">
            <mxRectangle width="60" height="30" as="alternateBounds" />
          </mxGeometry>
        </mxCell>
        <mxCell id="YwNAG1RBIBUJRPn3ZiGR-219" value="brand_uuid" style="shape=partialRectangle;connectable=0;fillColor=none;top=0;left=0;bottom=0;right=0;align=left;spacingLeft=6;fontStyle=5;overflow=hidden;html=1;whiteSpace=wrap;" vertex="1" parent="YwNAG1RBIBUJRPn3ZiGR-217">
          <mxGeometry x="60" width="190" height="30" as="geometry">
            <mxRectangle width="190" height="30" as="alternateBounds" />
          </mxGeometry>
        </mxCell>
        <mxCell id="YwNAG1RBIBUJRPn3ZiGR-220" value="VARCHAR" style="shape=partialRectangle;connectable=0;fillColor=none;top=0;left=0;bottom=0;right=0;align=left;spacingLeft=6;fontStyle=5;overflow=hidden;html=1;whiteSpace=wrap;" vertex="1" parent="YwNAG1RBIBUJRPn3ZiGR-217">
          <mxGeometry x="250" width="135" height="30" as="geometry">
            <mxRectangle width="135" height="30" as="alternateBounds" />
          </mxGeometry>
        </mxCell>
        <mxCell id="YwNAG1RBIBUJRPn3ZiGR-225" style="shape=tableRow;horizontal=0;startSize=0;swimlaneHead=0;swimlaneBody=0;fillColor=none;collapsible=0;dropTarget=0;points=[[0,0.5],[1,0.5]];portConstraint=eastwest;top=0;left=0;right=0;bottom=0;html=1;" vertex="1" parent="YwNAG1RBIBUJRPn3ZiGR-212">
          <mxGeometry y="90" width="385" height="30" as="geometry" />
        </mxCell>
        <mxCell id="YwNAG1RBIBUJRPn3ZiGR-226" style="shape=partialRectangle;connectable=0;fillColor=none;top=0;left=0;bottom=0;right=0;editable=1;overflow=hidden;html=1;whiteSpace=wrap;" vertex="1" parent="YwNAG1RBIBUJRPn3ZiGR-225">
          <mxGeometry width="60" height="30" as="geometry">
            <mxRectangle width="60" height="30" as="alternateBounds" />
          </mxGeometry>
        </mxCell>
        <mxCell id="YwNAG1RBIBUJRPn3ZiGR-227" value="description" style="shape=partialRectangle;connectable=0;fillColor=none;top=0;left=0;bottom=0;right=0;align=left;spacingLeft=6;overflow=hidden;html=1;whiteSpace=wrap;" vertex="1" parent="YwNAG1RBIBUJRPn3ZiGR-225">
          <mxGeometry x="60" width="190" height="30" as="geometry">
            <mxRectangle width="190" height="30" as="alternateBounds" />
          </mxGeometry>
        </mxCell>
        <mxCell id="YwNAG1RBIBUJRPn3ZiGR-228" value="VARCHAR" style="shape=partialRectangle;connectable=0;fillColor=none;top=0;left=0;bottom=0;right=0;align=left;spacingLeft=6;overflow=hidden;html=1;whiteSpace=wrap;" vertex="1" parent="YwNAG1RBIBUJRPn3ZiGR-225">
          <mxGeometry x="250" width="135" height="30" as="geometry">
            <mxRectangle width="135" height="30" as="alternateBounds" />
          </mxGeometry>
        </mxCell>
        <mxCell id="YwNAG1RBIBUJRPn3ZiGR-229" style="shape=tableRow;horizontal=0;startSize=0;swimlaneHead=0;swimlaneBody=0;fillColor=none;collapsible=0;dropTarget=0;points=[[0,0.5],[1,0.5]];portConstraint=eastwest;top=0;left=0;right=0;bottom=0;html=1;" vertex="1" parent="YwNAG1RBIBUJRPn3ZiGR-212">
          <mxGeometry y="120" width="385" height="30" as="geometry" />
        </mxCell>
        <mxCell id="YwNAG1RBIBUJRPn3ZiGR-230" style="shape=partialRectangle;connectable=0;fillColor=none;top=0;left=0;bottom=0;right=0;editable=1;overflow=hidden;html=1;whiteSpace=wrap;" vertex="1" parent="YwNAG1RBIBUJRPn3ZiGR-229">
          <mxGeometry width="60" height="30" as="geometry">
            <mxRectangle width="60" height="30" as="alternateBounds" />
          </mxGeometry>
        </mxCell>
        <mxCell id="YwNAG1RBIBUJRPn3ZiGR-231" value="metabrite_campaign_id" style="shape=partialRectangle;connectable=0;fillColor=none;top=0;left=0;bottom=0;right=0;align=left;spacingLeft=6;overflow=hidden;html=1;whiteSpace=wrap;" vertex="1" parent="YwNAG1RBIBUJRPn3ZiGR-229">
          <mxGeometry x="60" width="190" height="30" as="geometry">
            <mxRectangle width="190" height="30" as="alternateBounds" />
          </mxGeometry>
        </mxCell>
        <mxCell id="YwNAG1RBIBUJRPn3ZiGR-232" value="VARCHAR" style="shape=partialRectangle;connectable=0;fillColor=none;top=0;left=0;bottom=0;right=0;align=left;spacingLeft=6;overflow=hidden;html=1;whiteSpace=wrap;" vertex="1" parent="YwNAG1RBIBUJRPn3ZiGR-229">
          <mxGeometry x="250" width="135" height="30" as="geometry">
            <mxRectangle width="135" height="30" as="alternateBounds" />
          </mxGeometry>
        </mxCell>
        <mxCell id="YwNAG1RBIBUJRPn3ZiGR-385" style="shape=tableRow;horizontal=0;startSize=0;swimlaneHead=0;swimlaneBody=0;fillColor=none;collapsible=0;dropTarget=0;points=[[0,0.5],[1,0.5]];portConstraint=eastwest;top=0;left=0;right=0;bottom=0;html=1;" vertex="1" parent="YwNAG1RBIBUJRPn3ZiGR-212">
          <mxGeometry y="150" width="385" height="30" as="geometry" />
        </mxCell>
        <mxCell id="YwNAG1RBIBUJRPn3ZiGR-386" style="shape=partialRectangle;connectable=0;fillColor=none;top=0;left=0;bottom=0;right=0;editable=1;overflow=hidden;html=1;whiteSpace=wrap;" vertex="1" parent="YwNAG1RBIBUJRPn3ZiGR-385">
          <mxGeometry width="60" height="30" as="geometry">
            <mxRectangle width="60" height="30" as="alternateBounds" />
          </mxGeometry>
        </mxCell>
        <mxCell id="YwNAG1RBIBUJRPn3ZiGR-387" value="original_metabrite_barcode" style="shape=partialRectangle;connectable=0;fillColor=none;top=0;left=0;bottom=0;right=0;align=left;spacingLeft=6;overflow=hidden;html=1;whiteSpace=wrap;" vertex="1" parent="YwNAG1RBIBUJRPn3ZiGR-385">
          <mxGeometry x="60" width="190" height="30" as="geometry">
            <mxRectangle width="190" height="30" as="alternateBounds" />
          </mxGeometry>
        </mxCell>
        <mxCell id="YwNAG1RBIBUJRPn3ZiGR-388" value="VARCHAR" style="shape=partialRectangle;connectable=0;fillColor=none;top=0;left=0;bottom=0;right=0;align=left;spacingLeft=6;overflow=hidden;html=1;whiteSpace=wrap;" vertex="1" parent="YwNAG1RBIBUJRPn3ZiGR-385">
          <mxGeometry x="250" width="135" height="30" as="geometry">
            <mxRectangle width="135" height="30" as="alternateBounds" />
          </mxGeometry>
        </mxCell>
        <mxCell id="YwNAG1RBIBUJRPn3ZiGR-381" style="shape=tableRow;horizontal=0;startSize=0;swimlaneHead=0;swimlaneBody=0;fillColor=none;collapsible=0;dropTarget=0;points=[[0,0.5],[1,0.5]];portConstraint=eastwest;top=0;left=0;right=0;bottom=0;html=1;" vertex="1" parent="YwNAG1RBIBUJRPn3ZiGR-212">
          <mxGeometry y="180" width="385" height="30" as="geometry" />
        </mxCell>
        <mxCell id="YwNAG1RBIBUJRPn3ZiGR-382" style="shape=partialRectangle;connectable=0;fillColor=none;top=0;left=0;bottom=0;right=0;editable=1;overflow=hidden;html=1;whiteSpace=wrap;" vertex="1" parent="YwNAG1RBIBUJRPn3ZiGR-381">
          <mxGeometry width="60" height="30" as="geometry">
            <mxRectangle width="60" height="30" as="alternateBounds" />
          </mxGeometry>
        </mxCell>
        <mxCell id="YwNAG1RBIBUJRPn3ZiGR-383" value="original_metabrite_description" style="shape=partialRectangle;connectable=0;fillColor=none;top=0;left=0;bottom=0;right=0;align=left;spacingLeft=6;overflow=hidden;html=1;whiteSpace=wrap;" vertex="1" parent="YwNAG1RBIBUJRPn3ZiGR-381">
          <mxGeometry x="60" width="190" height="30" as="geometry">
            <mxRectangle width="190" height="30" as="alternateBounds" />
          </mxGeometry>
        </mxCell>
        <mxCell id="YwNAG1RBIBUJRPn3ZiGR-384" value="VARCHAR" style="shape=partialRectangle;connectable=0;fillColor=none;top=0;left=0;bottom=0;right=0;align=left;spacingLeft=6;overflow=hidden;html=1;whiteSpace=wrap;" vertex="1" parent="YwNAG1RBIBUJRPn3ZiGR-381">
          <mxGeometry x="250" width="135" height="30" as="geometry">
            <mxRectangle width="135" height="30" as="alternateBounds" />
          </mxGeometry>
        </mxCell>
        <mxCell id="YwNAG1RBIBUJRPn3ZiGR-389" style="shape=tableRow;horizontal=0;startSize=0;swimlaneHead=0;swimlaneBody=0;fillColor=none;collapsible=0;dropTarget=0;points=[[0,0.5],[1,0.5]];portConstraint=eastwest;top=0;left=0;right=0;bottom=0;html=1;" vertex="1" parent="YwNAG1RBIBUJRPn3ZiGR-212">
          <mxGeometry y="210" width="385" height="30" as="geometry" />
        </mxCell>
        <mxCell id="YwNAG1RBIBUJRPn3ZiGR-390" style="shape=partialRectangle;connectable=0;fillColor=none;top=0;left=0;bottom=0;right=0;editable=1;overflow=hidden;html=1;whiteSpace=wrap;" vertex="1" parent="YwNAG1RBIBUJRPn3ZiGR-389">
          <mxGeometry width="60" height="30" as="geometry">
            <mxRectangle width="60" height="30" as="alternateBounds" />
          </mxGeometry>
        </mxCell>
        <mxCell id="YwNAG1RBIBUJRPn3ZiGR-391" value="original_metabrite_item_price" style="shape=partialRectangle;connectable=0;fillColor=none;top=0;left=0;bottom=0;right=0;align=left;spacingLeft=6;overflow=hidden;html=1;whiteSpace=wrap;" vertex="1" parent="YwNAG1RBIBUJRPn3ZiGR-389">
          <mxGeometry x="60" width="190" height="30" as="geometry">
            <mxRectangle width="190" height="30" as="alternateBounds" />
          </mxGeometry>
        </mxCell>
        <mxCell id="YwNAG1RBIBUJRPn3ZiGR-392" value="DECIMAL(10,2)" style="shape=partialRectangle;connectable=0;fillColor=none;top=0;left=0;bottom=0;right=0;align=left;spacingLeft=6;overflow=hidden;html=1;whiteSpace=wrap;" vertex="1" parent="YwNAG1RBIBUJRPn3ZiGR-389">
          <mxGeometry x="250" width="135" height="30" as="geometry">
            <mxRectangle width="135" height="30" as="alternateBounds" />
          </mxGeometry>
        </mxCell>
        <mxCell id="YwNAG1RBIBUJRPn3ZiGR-237" style="shape=tableRow;horizontal=0;startSize=0;swimlaneHead=0;swimlaneBody=0;fillColor=none;collapsible=0;dropTarget=0;points=[[0,0.5],[1,0.5]];portConstraint=eastwest;top=0;left=0;right=0;bottom=0;html=1;" vertex="1" parent="YwNAG1RBIBUJRPn3ZiGR-212">
          <mxGeometry y="240" width="385" height="30" as="geometry" />
        </mxCell>
        <mxCell id="YwNAG1RBIBUJRPn3ZiGR-238" style="shape=partialRectangle;connectable=0;fillColor=none;top=0;left=0;bottom=0;right=0;editable=1;overflow=hidden;html=1;whiteSpace=wrap;" vertex="1" parent="YwNAG1RBIBUJRPn3ZiGR-237">
          <mxGeometry width="60" height="30" as="geometry">
            <mxRectangle width="60" height="30" as="alternateBounds" />
          </mxGeometry>
        </mxCell>
        <mxCell id="YwNAG1RBIBUJRPn3ZiGR-239" value="rewards_group" style="shape=partialRectangle;connectable=0;fillColor=none;top=0;left=0;bottom=0;right=0;align=left;spacingLeft=6;overflow=hidden;html=1;whiteSpace=wrap;" vertex="1" parent="YwNAG1RBIBUJRPn3ZiGR-237">
          <mxGeometry x="60" width="190" height="30" as="geometry">
            <mxRectangle width="190" height="30" as="alternateBounds" />
          </mxGeometry>
        </mxCell>
        <mxCell id="YwNAG1RBIBUJRPn3ZiGR-240" value="VARCHAR" style="shape=partialRectangle;connectable=0;fillColor=none;top=0;left=0;bottom=0;right=0;align=left;spacingLeft=6;overflow=hidden;html=1;whiteSpace=wrap;" vertex="1" parent="YwNAG1RBIBUJRPn3ZiGR-237">
          <mxGeometry x="250" width="135" height="30" as="geometry">
            <mxRectangle width="135" height="30" as="alternateBounds" />
          </mxGeometry>
        </mxCell>
        <mxCell id="YwNAG1RBIBUJRPn3ZiGR-241" style="shape=tableRow;horizontal=0;startSize=0;swimlaneHead=0;swimlaneBody=0;fillColor=none;collapsible=0;dropTarget=0;points=[[0,0.5],[1,0.5]];portConstraint=eastwest;top=0;left=0;right=0;bottom=0;html=1;" vertex="1" parent="YwNAG1RBIBUJRPn3ZiGR-212">
          <mxGeometry y="270" width="385" height="30" as="geometry" />
        </mxCell>
        <mxCell id="YwNAG1RBIBUJRPn3ZiGR-242" style="shape=partialRectangle;connectable=0;fillColor=none;top=0;left=0;bottom=0;right=0;editable=1;overflow=hidden;html=1;whiteSpace=wrap;" vertex="1" parent="YwNAG1RBIBUJRPn3ZiGR-241">
          <mxGeometry width="60" height="30" as="geometry">
            <mxRectangle width="60" height="30" as="alternateBounds" />
          </mxGeometry>
        </mxCell>
        <mxCell id="YwNAG1RBIBUJRPn3ZiGR-243" value="rewards_product_partner_id" style="shape=partialRectangle;connectable=0;fillColor=none;top=0;left=0;bottom=0;right=0;align=left;spacingLeft=6;overflow=hidden;html=1;whiteSpace=wrap;" vertex="1" parent="YwNAG1RBIBUJRPn3ZiGR-241">
          <mxGeometry x="60" width="190" height="30" as="geometry">
            <mxRectangle width="190" height="30" as="alternateBounds" />
          </mxGeometry>
        </mxCell>
        <mxCell id="YwNAG1RBIBUJRPn3ZiGR-244" value="VARCHAR" style="shape=partialRectangle;connectable=0;fillColor=none;top=0;left=0;bottom=0;right=0;align=left;spacingLeft=6;overflow=hidden;html=1;whiteSpace=wrap;" vertex="1" parent="YwNAG1RBIBUJRPn3ZiGR-241">
          <mxGeometry x="250" width="135" height="30" as="geometry">
            <mxRectangle width="135" height="30" as="alternateBounds" />
          </mxGeometry>
        </mxCell>
        <mxCell id="YwNAG1RBIBUJRPn3ZiGR-245" style="shape=tableRow;horizontal=0;startSize=0;swimlaneHead=0;swimlaneBody=0;fillColor=none;collapsible=0;dropTarget=0;points=[[0,0.5],[1,0.5]];portConstraint=eastwest;top=0;left=0;right=0;bottom=0;html=1;" vertex="1" parent="YwNAG1RBIBUJRPn3ZiGR-212">
          <mxGeometry y="300" width="385" height="30" as="geometry" />
        </mxCell>
        <mxCell id="YwNAG1RBIBUJRPn3ZiGR-246" style="shape=partialRectangle;connectable=0;fillColor=none;top=0;left=0;bottom=0;right=0;editable=1;overflow=hidden;html=1;whiteSpace=wrap;" vertex="1" parent="YwNAG1RBIBUJRPn3ZiGR-245">
          <mxGeometry width="60" height="30" as="geometry">
            <mxRectangle width="60" height="30" as="alternateBounds" />
          </mxGeometry>
        </mxCell>
        <mxCell id="YwNAG1RBIBUJRPn3ZiGR-247" value="product_price" style="shape=partialRectangle;connectable=0;fillColor=none;top=0;left=0;bottom=0;right=0;align=left;spacingLeft=6;overflow=hidden;html=1;whiteSpace=wrap;" vertex="1" parent="YwNAG1RBIBUJRPn3ZiGR-245">
          <mxGeometry x="60" width="190" height="30" as="geometry">
            <mxRectangle width="190" height="30" as="alternateBounds" />
          </mxGeometry>
        </mxCell>
        <mxCell id="YwNAG1RBIBUJRPn3ZiGR-248" value="DECIMAL" style="shape=partialRectangle;connectable=0;fillColor=none;top=0;left=0;bottom=0;right=0;align=left;spacingLeft=6;overflow=hidden;html=1;whiteSpace=wrap;" vertex="1" parent="YwNAG1RBIBUJRPn3ZiGR-245">
          <mxGeometry x="250" width="135" height="30" as="geometry">
            <mxRectangle width="135" height="30" as="alternateBounds" />
          </mxGeometry>
        </mxCell>
        <mxCell id="YwNAG1RBIBUJRPn3ZiGR-298" style="shape=tableRow;horizontal=0;startSize=0;swimlaneHead=0;swimlaneBody=0;fillColor=none;collapsible=0;dropTarget=0;points=[[0,0.5],[1,0.5]];portConstraint=eastwest;top=0;left=0;right=0;bottom=0;html=1;" vertex="1" parent="YwNAG1RBIBUJRPn3ZiGR-212">
          <mxGeometry y="330" width="385" height="30" as="geometry" />
        </mxCell>
        <mxCell id="YwNAG1RBIBUJRPn3ZiGR-299" style="shape=partialRectangle;connectable=0;fillColor=none;top=0;left=0;bottom=0;right=0;editable=1;overflow=hidden;html=1;whiteSpace=wrap;" vertex="1" parent="YwNAG1RBIBUJRPn3ZiGR-298">
          <mxGeometry width="60" height="30" as="geometry">
            <mxRectangle width="60" height="30" as="alternateBounds" />
          </mxGeometry>
        </mxCell>
        <mxCell id="YwNAG1RBIBUJRPn3ZiGR-300" value="competitive_product" style="shape=partialRectangle;connectable=0;fillColor=none;top=0;left=0;bottom=0;right=0;align=left;spacingLeft=6;overflow=hidden;html=1;whiteSpace=wrap;" vertex="1" parent="YwNAG1RBIBUJRPn3ZiGR-298">
          <mxGeometry x="60" width="190" height="30" as="geometry">
            <mxRectangle width="190" height="30" as="alternateBounds" />
          </mxGeometry>
        </mxCell>
        <mxCell id="YwNAG1RBIBUJRPn3ZiGR-301" value="BOOLEAN" style="shape=partialRectangle;connectable=0;fillColor=none;top=0;left=0;bottom=0;right=0;align=left;spacingLeft=6;overflow=hidden;html=1;whiteSpace=wrap;" vertex="1" parent="YwNAG1RBIBUJRPn3ZiGR-298">
          <mxGeometry x="250" width="135" height="30" as="geometry">
            <mxRectangle width="135" height="30" as="alternateBounds" />
          </mxGeometry>
        </mxCell>
        <mxCell id="YwNAG1RBIBUJRPn3ZiGR-302" style="shape=tableRow;horizontal=0;startSize=0;swimlaneHead=0;swimlaneBody=0;fillColor=none;collapsible=0;dropTarget=0;points=[[0,0.5],[1,0.5]];portConstraint=eastwest;top=0;left=0;right=0;bottom=0;html=1;" vertex="1" parent="YwNAG1RBIBUJRPn3ZiGR-212">
          <mxGeometry y="360" width="385" height="30" as="geometry" />
        </mxCell>
        <mxCell id="YwNAG1RBIBUJRPn3ZiGR-303" style="shape=partialRectangle;connectable=0;fillColor=none;top=0;left=0;bottom=0;right=0;editable=1;overflow=hidden;html=1;whiteSpace=wrap;" vertex="1" parent="YwNAG1RBIBUJRPn3ZiGR-302">
          <mxGeometry width="60" height="30" as="geometry">
            <mxRectangle width="60" height="30" as="alternateBounds" />
          </mxGeometry>
        </mxCell>
        <mxCell id="YwNAG1RBIBUJRPn3ZiGR-304" value="competitor_rewards_group" style="shape=partialRectangle;connectable=0;fillColor=none;top=0;left=0;bottom=0;right=0;align=left;spacingLeft=6;overflow=hidden;html=1;whiteSpace=wrap;" vertex="1" parent="YwNAG1RBIBUJRPn3ZiGR-302">
          <mxGeometry x="60" width="190" height="30" as="geometry">
            <mxRectangle width="190" height="30" as="alternateBounds" />
          </mxGeometry>
        </mxCell>
        <mxCell id="YwNAG1RBIBUJRPn3ZiGR-305" value="VARCHAR" style="shape=partialRectangle;connectable=0;fillColor=none;top=0;left=0;bottom=0;right=0;align=left;spacingLeft=6;overflow=hidden;html=1;whiteSpace=wrap;" vertex="1" parent="YwNAG1RBIBUJRPn3ZiGR-302">
          <mxGeometry x="250" width="135" height="30" as="geometry">
            <mxRectangle width="135" height="30" as="alternateBounds" />
          </mxGeometry>
        </mxCell>
        <mxCell id="YwNAG1RBIBUJRPn3ZiGR-249" value="receipt_items" style="shape=table;startSize=30;container=1;collapsible=1;childLayout=tableLayout;fixedRows=1;rowLines=0;fontStyle=1;align=center;resizeLast=1;html=1;whiteSpace=wrap;fillColor=#f8cecc;gradientColor=#ea6b66;strokeColor=#b85450;strokeWidth=5;" vertex="1" parent="1">
          <mxGeometry x="540" y="60" width="420" height="779" as="geometry" />
        </mxCell>
        <mxCell id="YwNAG1RBIBUJRPn3ZiGR-290" style="shape=tableRow;horizontal=0;startSize=0;swimlaneHead=0;swimlaneBody=0;fillColor=none;collapsible=0;dropTarget=0;points=[[0,0.5],[1,0.5]];portConstraint=eastwest;top=0;left=0;right=0;bottom=0;html=1;" vertex="1" parent="YwNAG1RBIBUJRPn3ZiGR-249">
          <mxGeometry y="30" width="420" height="30" as="geometry" />
        </mxCell>
        <mxCell id="YwNAG1RBIBUJRPn3ZiGR-291" value="PK" style="shape=partialRectangle;connectable=0;fillColor=none;top=0;left=0;bottom=0;right=0;fontStyle=1;overflow=hidden;html=1;whiteSpace=wrap;" vertex="1" parent="YwNAG1RBIBUJRPn3ZiGR-290">
          <mxGeometry width="60" height="30" as="geometry">
            <mxRectangle width="60" height="30" as="alternateBounds" />
          </mxGeometry>
        </mxCell>
        <mxCell id="YwNAG1RBIBUJRPn3ZiGR-292" value="receipt_items_id" style="shape=partialRectangle;connectable=0;fillColor=none;top=0;left=0;bottom=0;right=0;align=left;spacingLeft=6;fontStyle=5;overflow=hidden;html=1;whiteSpace=wrap;" vertex="1" parent="YwNAG1RBIBUJRPn3ZiGR-290">
          <mxGeometry x="60" width="230" height="30" as="geometry">
            <mxRectangle width="230" height="30" as="alternateBounds" />
          </mxGeometry>
        </mxCell>
        <mxCell id="YwNAG1RBIBUJRPn3ZiGR-293" value="INTEGER" style="shape=partialRectangle;connectable=0;fillColor=none;top=0;left=0;bottom=0;right=0;align=left;spacingLeft=6;fontStyle=5;overflow=hidden;html=1;whiteSpace=wrap;" vertex="1" parent="YwNAG1RBIBUJRPn3ZiGR-290">
          <mxGeometry x="290" width="130" height="30" as="geometry">
            <mxRectangle width="130" height="30" as="alternateBounds" />
          </mxGeometry>
        </mxCell>
        <mxCell id="YwNAG1RBIBUJRPn3ZiGR-250" style="shape=tableRow;horizontal=0;startSize=0;swimlaneHead=0;swimlaneBody=0;fillColor=none;collapsible=0;dropTarget=0;points=[[0,0.5],[1,0.5]];portConstraint=eastwest;top=0;left=0;right=0;bottom=0;html=1;" vertex="1" parent="YwNAG1RBIBUJRPn3ZiGR-249">
          <mxGeometry y="60" width="420" height="30" as="geometry" />
        </mxCell>
        <mxCell id="YwNAG1RBIBUJRPn3ZiGR-251" value="FK" style="shape=partialRectangle;connectable=0;fillColor=none;top=0;left=0;bottom=0;right=0;fontStyle=1;overflow=hidden;html=1;whiteSpace=wrap;" vertex="1" parent="YwNAG1RBIBUJRPn3ZiGR-250">
          <mxGeometry width="60" height="30" as="geometry">
            <mxRectangle width="60" height="30" as="alternateBounds" />
          </mxGeometry>
        </mxCell>
        <mxCell id="YwNAG1RBIBUJRPn3ZiGR-252" value="product_id" style="shape=partialRectangle;connectable=0;fillColor=none;top=0;left=0;bottom=0;right=0;align=left;spacingLeft=6;fontStyle=5;overflow=hidden;html=1;whiteSpace=wrap;" vertex="1" parent="YwNAG1RBIBUJRPn3ZiGR-250">
          <mxGeometry x="60" width="230" height="30" as="geometry">
            <mxRectangle width="230" height="30" as="alternateBounds" />
          </mxGeometry>
        </mxCell>
        <mxCell id="YwNAG1RBIBUJRPn3ZiGR-253" value="VARCHAR" style="shape=partialRectangle;connectable=0;fillColor=none;top=0;left=0;bottom=0;right=0;align=left;spacingLeft=6;fontStyle=5;overflow=hidden;html=1;whiteSpace=wrap;" vertex="1" parent="YwNAG1RBIBUJRPn3ZiGR-250">
          <mxGeometry x="290" width="130" height="30" as="geometry">
            <mxRectangle width="130" height="30" as="alternateBounds" />
          </mxGeometry>
        </mxCell>
        <mxCell id="YwNAG1RBIBUJRPn3ZiGR-254" style="shape=tableRow;horizontal=0;startSize=0;swimlaneHead=0;swimlaneBody=0;fillColor=none;collapsible=0;dropTarget=0;points=[[0,0.5],[1,0.5]];portConstraint=eastwest;top=0;left=0;right=0;bottom=1;html=1;" vertex="1" parent="YwNAG1RBIBUJRPn3ZiGR-249">
          <mxGeometry y="90" width="420" height="30" as="geometry" />
        </mxCell>
        <mxCell id="YwNAG1RBIBUJRPn3ZiGR-255" value="FK" style="shape=partialRectangle;connectable=0;fillColor=none;top=0;left=0;bottom=0;right=0;fontStyle=1;overflow=hidden;html=1;whiteSpace=wrap;" vertex="1" parent="YwNAG1RBIBUJRPn3ZiGR-254">
          <mxGeometry width="60" height="30" as="geometry">
            <mxRectangle width="60" height="30" as="alternateBounds" />
          </mxGeometry>
        </mxCell>
        <mxCell id="YwNAG1RBIBUJRPn3ZiGR-256" value="receipt_id" style="shape=partialRectangle;connectable=0;fillColor=none;top=0;left=0;bottom=0;right=0;align=left;spacingLeft=6;fontStyle=5;overflow=hidden;html=1;whiteSpace=wrap;" vertex="1" parent="YwNAG1RBIBUJRPn3ZiGR-254">
          <mxGeometry x="60" width="230" height="30" as="geometry">
            <mxRectangle width="230" height="30" as="alternateBounds" />
          </mxGeometry>
        </mxCell>
        <mxCell id="YwNAG1RBIBUJRPn3ZiGR-257" value="VARCHAR" style="shape=partialRectangle;connectable=0;fillColor=none;top=0;left=0;bottom=0;right=0;align=left;spacingLeft=6;fontStyle=5;overflow=hidden;html=1;whiteSpace=wrap;" vertex="1" parent="YwNAG1RBIBUJRPn3ZiGR-254">
          <mxGeometry x="290" width="130" height="30" as="geometry">
            <mxRectangle width="130" height="30" as="alternateBounds" />
          </mxGeometry>
        </mxCell>
        <mxCell id="YwNAG1RBIBUJRPn3ZiGR-258" value="" style="shape=tableRow;horizontal=0;startSize=0;swimlaneHead=0;swimlaneBody=0;fillColor=none;collapsible=0;dropTarget=0;points=[[0,0.5],[1,0.5]];portConstraint=eastwest;top=0;left=0;right=0;bottom=0;html=1;" vertex="1" parent="YwNAG1RBIBUJRPn3ZiGR-249">
          <mxGeometry y="120" width="420" height="30" as="geometry" />
        </mxCell>
        <mxCell id="YwNAG1RBIBUJRPn3ZiGR-259" value="" style="shape=partialRectangle;connectable=0;fillColor=none;top=0;left=0;bottom=0;right=0;editable=1;overflow=hidden;html=1;whiteSpace=wrap;" vertex="1" parent="YwNAG1RBIBUJRPn3ZiGR-258">
          <mxGeometry width="60" height="30" as="geometry">
            <mxRectangle width="60" height="30" as="alternateBounds" />
          </mxGeometry>
        </mxCell>
        <mxCell id="YwNAG1RBIBUJRPn3ZiGR-260" value="quantity_purchased" style="shape=partialRectangle;connectable=0;fillColor=none;top=0;left=0;bottom=0;right=0;align=left;spacingLeft=6;overflow=hidden;html=1;whiteSpace=wrap;" vertex="1" parent="YwNAG1RBIBUJRPn3ZiGR-258">
          <mxGeometry x="60" width="230" height="30" as="geometry">
            <mxRectangle width="230" height="30" as="alternateBounds" />
          </mxGeometry>
        </mxCell>
        <mxCell id="YwNAG1RBIBUJRPn3ZiGR-261" value="INTEGER" style="shape=partialRectangle;connectable=0;fillColor=none;top=0;left=0;bottom=0;right=0;align=left;spacingLeft=6;overflow=hidden;html=1;whiteSpace=wrap;" vertex="1" parent="YwNAG1RBIBUJRPn3ZiGR-258">
          <mxGeometry x="290" width="130" height="30" as="geometry">
            <mxRectangle width="130" height="30" as="alternateBounds" />
          </mxGeometry>
        </mxCell>
        <mxCell id="YwNAG1RBIBUJRPn3ZiGR-262" style="shape=tableRow;horizontal=0;startSize=0;swimlaneHead=0;swimlaneBody=0;fillColor=none;collapsible=0;dropTarget=0;points=[[0,0.5],[1,0.5]];portConstraint=eastwest;top=0;left=0;right=0;bottom=0;html=1;" vertex="1" parent="YwNAG1RBIBUJRPn3ZiGR-249">
          <mxGeometry y="150" width="420" height="30" as="geometry" />
        </mxCell>
        <mxCell id="YwNAG1RBIBUJRPn3ZiGR-263" style="shape=partialRectangle;connectable=0;fillColor=none;top=0;left=0;bottom=0;right=0;editable=1;overflow=hidden;html=1;whiteSpace=wrap;" vertex="1" parent="YwNAG1RBIBUJRPn3ZiGR-262">
          <mxGeometry width="60" height="30" as="geometry">
            <mxRectangle width="60" height="30" as="alternateBounds" />
          </mxGeometry>
        </mxCell>
        <mxCell id="YwNAG1RBIBUJRPn3ZiGR-264" value="discounted_item_price" style="shape=partialRectangle;connectable=0;fillColor=none;top=0;left=0;bottom=0;right=0;align=left;spacingLeft=6;overflow=hidden;html=1;whiteSpace=wrap;" vertex="1" parent="YwNAG1RBIBUJRPn3ZiGR-262">
          <mxGeometry x="60" width="230" height="30" as="geometry">
            <mxRectangle width="230" height="30" as="alternateBounds" />
          </mxGeometry>
        </mxCell>
        <mxCell id="YwNAG1RBIBUJRPn3ZiGR-265" value="DECIMAL(10,2)" style="shape=partialRectangle;connectable=0;fillColor=none;top=0;left=0;bottom=0;right=0;align=left;spacingLeft=6;overflow=hidden;html=1;whiteSpace=wrap;" vertex="1" parent="YwNAG1RBIBUJRPn3ZiGR-262">
          <mxGeometry x="290" width="130" height="30" as="geometry">
            <mxRectangle width="130" height="30" as="alternateBounds" />
          </mxGeometry>
        </mxCell>
        <mxCell id="YwNAG1RBIBUJRPn3ZiGR-266" style="shape=tableRow;horizontal=0;startSize=0;swimlaneHead=0;swimlaneBody=0;fillColor=none;collapsible=0;dropTarget=0;points=[[0,0.5],[1,0.5]];portConstraint=eastwest;top=0;left=0;right=0;bottom=0;html=1;" vertex="1" parent="YwNAG1RBIBUJRPn3ZiGR-249">
          <mxGeometry y="180" width="420" height="30" as="geometry" />
        </mxCell>
        <mxCell id="YwNAG1RBIBUJRPn3ZiGR-267" style="shape=partialRectangle;connectable=0;fillColor=none;top=0;left=0;bottom=0;right=0;editable=1;overflow=hidden;html=1;whiteSpace=wrap;" vertex="1" parent="YwNAG1RBIBUJRPn3ZiGR-266">
          <mxGeometry width="60" height="30" as="geometry">
            <mxRectangle width="60" height="30" as="alternateBounds" />
          </mxGeometry>
        </mxCell>
        <mxCell id="YwNAG1RBIBUJRPn3ZiGR-268" value="final_price" style="shape=partialRectangle;connectable=0;fillColor=none;top=0;left=0;bottom=0;right=0;align=left;spacingLeft=6;overflow=hidden;html=1;whiteSpace=wrap;" vertex="1" parent="YwNAG1RBIBUJRPn3ZiGR-266">
          <mxGeometry x="60" width="230" height="30" as="geometry">
            <mxRectangle width="230" height="30" as="alternateBounds" />
          </mxGeometry>
        </mxCell>
        <mxCell id="YwNAG1RBIBUJRPn3ZiGR-269" value="DECIMAL(10,2)" style="shape=partialRectangle;connectable=0;fillColor=none;top=0;left=0;bottom=0;right=0;align=left;spacingLeft=6;overflow=hidden;html=1;whiteSpace=wrap;" vertex="1" parent="YwNAG1RBIBUJRPn3ZiGR-266">
          <mxGeometry x="290" width="130" height="30" as="geometry">
            <mxRectangle width="130" height="30" as="alternateBounds" />
          </mxGeometry>
        </mxCell>
        <mxCell id="YwNAG1RBIBUJRPn3ZiGR-393" style="shape=tableRow;horizontal=0;startSize=0;swimlaneHead=0;swimlaneBody=0;fillColor=none;collapsible=0;dropTarget=0;points=[[0,0.5],[1,0.5]];portConstraint=eastwest;top=0;left=0;right=0;bottom=0;html=1;" vertex="1" parent="YwNAG1RBIBUJRPn3ZiGR-249">
          <mxGeometry y="210" width="420" height="30" as="geometry" />
        </mxCell>
        <mxCell id="YwNAG1RBIBUJRPn3ZiGR-394" style="shape=partialRectangle;connectable=0;fillColor=none;top=0;left=0;bottom=0;right=0;editable=1;overflow=hidden;html=1;whiteSpace=wrap;" vertex="1" parent="YwNAG1RBIBUJRPn3ZiGR-393">
          <mxGeometry width="60" height="30" as="geometry">
            <mxRectangle width="60" height="30" as="alternateBounds" />
          </mxGeometry>
        </mxCell>
        <mxCell id="YwNAG1RBIBUJRPn3ZiGR-395" value="needs_fetch_review" style="shape=partialRectangle;connectable=0;fillColor=none;top=0;left=0;bottom=0;right=0;align=left;spacingLeft=6;overflow=hidden;html=1;whiteSpace=wrap;" vertex="1" parent="YwNAG1RBIBUJRPn3ZiGR-393">
          <mxGeometry x="60" width="230" height="30" as="geometry">
            <mxRectangle width="230" height="30" as="alternateBounds" />
          </mxGeometry>
        </mxCell>
        <mxCell id="YwNAG1RBIBUJRPn3ZiGR-396" value="BOOLEAN" style="shape=partialRectangle;connectable=0;fillColor=none;top=0;left=0;bottom=0;right=0;align=left;spacingLeft=6;overflow=hidden;html=1;whiteSpace=wrap;" vertex="1" parent="YwNAG1RBIBUJRPn3ZiGR-393">
          <mxGeometry x="290" width="130" height="30" as="geometry">
            <mxRectangle width="130" height="30" as="alternateBounds" />
          </mxGeometry>
        </mxCell>
        <mxCell id="YwNAG1RBIBUJRPn3ZiGR-325" style="shape=tableRow;horizontal=0;startSize=0;swimlaneHead=0;swimlaneBody=0;fillColor=none;collapsible=0;dropTarget=0;points=[[0,0.5],[1,0.5]];portConstraint=eastwest;top=0;left=0;right=0;bottom=0;html=1;" vertex="1" parent="YwNAG1RBIBUJRPn3ZiGR-249">
          <mxGeometry y="240" width="420" height="30" as="geometry" />
        </mxCell>
        <mxCell id="YwNAG1RBIBUJRPn3ZiGR-326" style="shape=partialRectangle;connectable=0;fillColor=none;top=0;left=0;bottom=0;right=0;editable=1;overflow=hidden;html=1;whiteSpace=wrap;" vertex="1" parent="YwNAG1RBIBUJRPn3ZiGR-325">
          <mxGeometry width="60" height="30" as="geometry">
            <mxRectangle width="60" height="30" as="alternateBounds" />
          </mxGeometry>
        </mxCell>
        <mxCell id="YwNAG1RBIBUJRPn3ZiGR-327" value="partner_item_id" style="shape=partialRectangle;connectable=0;fillColor=none;top=0;left=0;bottom=0;right=0;align=left;spacingLeft=6;overflow=hidden;html=1;whiteSpace=wrap;" vertex="1" parent="YwNAG1RBIBUJRPn3ZiGR-325">
          <mxGeometry x="60" width="230" height="30" as="geometry">
            <mxRectangle width="230" height="30" as="alternateBounds" />
          </mxGeometry>
        </mxCell>
        <mxCell id="YwNAG1RBIBUJRPn3ZiGR-328" value="VARCHAR" style="shape=partialRectangle;connectable=0;fillColor=none;top=0;left=0;bottom=0;right=0;align=left;spacingLeft=6;overflow=hidden;html=1;whiteSpace=wrap;" vertex="1" parent="YwNAG1RBIBUJRPn3ZiGR-325">
          <mxGeometry x="290" width="130" height="30" as="geometry">
            <mxRectangle width="130" height="30" as="alternateBounds" />
          </mxGeometry>
        </mxCell>
        <mxCell id="YwNAG1RBIBUJRPn3ZiGR-329" style="shape=tableRow;horizontal=0;startSize=0;swimlaneHead=0;swimlaneBody=0;fillColor=none;collapsible=0;dropTarget=0;points=[[0,0.5],[1,0.5]];portConstraint=eastwest;top=0;left=0;right=0;bottom=0;html=1;" vertex="1" parent="YwNAG1RBIBUJRPn3ZiGR-249">
          <mxGeometry y="270" width="420" height="30" as="geometry" />
        </mxCell>
        <mxCell id="YwNAG1RBIBUJRPn3ZiGR-330" style="shape=partialRectangle;connectable=0;fillColor=none;top=0;left=0;bottom=0;right=0;editable=1;overflow=hidden;html=1;whiteSpace=wrap;" vertex="1" parent="YwNAG1RBIBUJRPn3ZiGR-329">
          <mxGeometry width="60" height="30" as="geometry">
            <mxRectangle width="60" height="30" as="alternateBounds" />
          </mxGeometry>
        </mxCell>
        <mxCell id="YwNAG1RBIBUJRPn3ZiGR-331" value="prevent_target_gap_points" style="shape=partialRectangle;connectable=0;fillColor=none;top=0;left=0;bottom=0;right=0;align=left;spacingLeft=6;overflow=hidden;html=1;whiteSpace=wrap;" vertex="1" parent="YwNAG1RBIBUJRPn3ZiGR-329">
          <mxGeometry x="60" width="230" height="30" as="geometry">
            <mxRectangle width="230" height="30" as="alternateBounds" />
          </mxGeometry>
        </mxCell>
        <mxCell id="YwNAG1RBIBUJRPn3ZiGR-332" value="BOOLEAN" style="shape=partialRectangle;connectable=0;fillColor=none;top=0;left=0;bottom=0;right=0;align=left;spacingLeft=6;overflow=hidden;html=1;whiteSpace=wrap;" vertex="1" parent="YwNAG1RBIBUJRPn3ZiGR-329">
          <mxGeometry x="290" width="130" height="30" as="geometry">
            <mxRectangle width="130" height="30" as="alternateBounds" />
          </mxGeometry>
        </mxCell>
        <mxCell id="YwNAG1RBIBUJRPn3ZiGR-353" style="shape=tableRow;horizontal=0;startSize=0;swimlaneHead=0;swimlaneBody=0;fillColor=none;collapsible=0;dropTarget=0;points=[[0,0.5],[1,0.5]];portConstraint=eastwest;top=0;left=0;right=0;bottom=0;html=1;" vertex="1" parent="YwNAG1RBIBUJRPn3ZiGR-249">
          <mxGeometry y="300" width="420" height="30" as="geometry" />
        </mxCell>
        <mxCell id="YwNAG1RBIBUJRPn3ZiGR-354" style="shape=partialRectangle;connectable=0;fillColor=none;top=0;left=0;bottom=0;right=0;editable=1;overflow=hidden;html=1;whiteSpace=wrap;" vertex="1" parent="YwNAG1RBIBUJRPn3ZiGR-353">
          <mxGeometry width="60" height="30" as="geometry">
            <mxRectangle width="60" height="30" as="alternateBounds" />
          </mxGeometry>
        </mxCell>
        <mxCell id="YwNAG1RBIBUJRPn3ZiGR-355" value="user_flagged_barcode" style="shape=partialRectangle;connectable=0;fillColor=none;top=0;left=0;bottom=0;right=0;align=left;spacingLeft=6;overflow=hidden;html=1;whiteSpace=wrap;" vertex="1" parent="YwNAG1RBIBUJRPn3ZiGR-353">
          <mxGeometry x="60" width="230" height="30" as="geometry">
            <mxRectangle width="230" height="30" as="alternateBounds" />
          </mxGeometry>
        </mxCell>
        <mxCell id="YwNAG1RBIBUJRPn3ZiGR-356" value="VARCHAR" style="shape=partialRectangle;connectable=0;fillColor=none;top=0;left=0;bottom=0;right=0;align=left;spacingLeft=6;overflow=hidden;html=1;whiteSpace=wrap;" vertex="1" parent="YwNAG1RBIBUJRPn3ZiGR-353">
          <mxGeometry x="290" width="130" height="30" as="geometry">
            <mxRectangle width="130" height="30" as="alternateBounds" />
          </mxGeometry>
        </mxCell>
        <mxCell id="YwNAG1RBIBUJRPn3ZiGR-349" style="shape=tableRow;horizontal=0;startSize=0;swimlaneHead=0;swimlaneBody=0;fillColor=none;collapsible=0;dropTarget=0;points=[[0,0.5],[1,0.5]];portConstraint=eastwest;top=0;left=0;right=0;bottom=0;html=1;" vertex="1" parent="YwNAG1RBIBUJRPn3ZiGR-249">
          <mxGeometry y="330" width="420" height="30" as="geometry" />
        </mxCell>
        <mxCell id="YwNAG1RBIBUJRPn3ZiGR-350" style="shape=partialRectangle;connectable=0;fillColor=none;top=0;left=0;bottom=0;right=0;editable=1;overflow=hidden;html=1;whiteSpace=wrap;" vertex="1" parent="YwNAG1RBIBUJRPn3ZiGR-349">
          <mxGeometry width="60" height="30" as="geometry">
            <mxRectangle width="60" height="30" as="alternateBounds" />
          </mxGeometry>
        </mxCell>
        <mxCell id="YwNAG1RBIBUJRPn3ZiGR-351" value="user_flagged_new_item" style="shape=partialRectangle;connectable=0;fillColor=none;top=0;left=0;bottom=0;right=0;align=left;spacingLeft=6;overflow=hidden;html=1;whiteSpace=wrap;" vertex="1" parent="YwNAG1RBIBUJRPn3ZiGR-349">
          <mxGeometry x="60" width="230" height="30" as="geometry">
            <mxRectangle width="230" height="30" as="alternateBounds" />
          </mxGeometry>
        </mxCell>
        <mxCell id="YwNAG1RBIBUJRPn3ZiGR-352" value="VARCHAR" style="shape=partialRectangle;connectable=0;fillColor=none;top=0;left=0;bottom=0;right=0;align=left;spacingLeft=6;overflow=hidden;html=1;whiteSpace=wrap;" vertex="1" parent="YwNAG1RBIBUJRPn3ZiGR-349">
          <mxGeometry x="290" width="130" height="30" as="geometry">
            <mxRectangle width="130" height="30" as="alternateBounds" />
          </mxGeometry>
        </mxCell>
        <mxCell id="YwNAG1RBIBUJRPn3ZiGR-341" style="shape=tableRow;horizontal=0;startSize=0;swimlaneHead=0;swimlaneBody=0;fillColor=none;collapsible=0;dropTarget=0;points=[[0,0.5],[1,0.5]];portConstraint=eastwest;top=0;left=0;right=0;bottom=0;html=1;" vertex="1" parent="YwNAG1RBIBUJRPn3ZiGR-249">
          <mxGeometry y="360" width="420" height="30" as="geometry" />
        </mxCell>
        <mxCell id="YwNAG1RBIBUJRPn3ZiGR-342" style="shape=partialRectangle;connectable=0;fillColor=none;top=0;left=0;bottom=0;right=0;editable=1;overflow=hidden;html=1;whiteSpace=wrap;" vertex="1" parent="YwNAG1RBIBUJRPn3ZiGR-341">
          <mxGeometry width="60" height="30" as="geometry">
            <mxRectangle width="60" height="30" as="alternateBounds" />
          </mxGeometry>
        </mxCell>
        <mxCell id="YwNAG1RBIBUJRPn3ZiGR-343" value="user_flagged_quantity" style="shape=partialRectangle;connectable=0;fillColor=none;top=0;left=0;bottom=0;right=0;align=left;spacingLeft=6;overflow=hidden;html=1;whiteSpace=wrap;" vertex="1" parent="YwNAG1RBIBUJRPn3ZiGR-341">
          <mxGeometry x="60" width="230" height="30" as="geometry">
            <mxRectangle width="230" height="30" as="alternateBounds" />
          </mxGeometry>
        </mxCell>
        <mxCell id="YwNAG1RBIBUJRPn3ZiGR-344" value="VARCHAR" style="shape=partialRectangle;connectable=0;fillColor=none;top=0;left=0;bottom=0;right=0;align=left;spacingLeft=6;overflow=hidden;html=1;whiteSpace=wrap;" vertex="1" parent="YwNAG1RBIBUJRPn3ZiGR-341">
          <mxGeometry x="290" width="130" height="30" as="geometry">
            <mxRectangle width="130" height="30" as="alternateBounds" />
          </mxGeometry>
        </mxCell>
        <mxCell id="YwNAG1RBIBUJRPn3ZiGR-345" style="shape=tableRow;horizontal=0;startSize=0;swimlaneHead=0;swimlaneBody=0;fillColor=none;collapsible=0;dropTarget=0;points=[[0,0.5],[1,0.5]];portConstraint=eastwest;top=0;left=0;right=0;bottom=0;html=1;" vertex="1" parent="YwNAG1RBIBUJRPn3ZiGR-249">
          <mxGeometry y="390" width="420" height="30" as="geometry" />
        </mxCell>
        <mxCell id="YwNAG1RBIBUJRPn3ZiGR-346" style="shape=partialRectangle;connectable=0;fillColor=none;top=0;left=0;bottom=0;right=0;editable=1;overflow=hidden;html=1;whiteSpace=wrap;" vertex="1" parent="YwNAG1RBIBUJRPn3ZiGR-345">
          <mxGeometry width="60" height="30" as="geometry">
            <mxRectangle width="60" height="30" as="alternateBounds" />
          </mxGeometry>
        </mxCell>
        <mxCell id="YwNAG1RBIBUJRPn3ZiGR-347" value="user_flagged_price" style="shape=partialRectangle;connectable=0;fillColor=none;top=0;left=0;bottom=0;right=0;align=left;spacingLeft=6;overflow=hidden;html=1;whiteSpace=wrap;" vertex="1" parent="YwNAG1RBIBUJRPn3ZiGR-345">
          <mxGeometry x="60" width="230" height="30" as="geometry">
            <mxRectangle width="230" height="30" as="alternateBounds" />
          </mxGeometry>
        </mxCell>
        <mxCell id="YwNAG1RBIBUJRPn3ZiGR-348" value="VARCHAR" style="shape=partialRectangle;connectable=0;fillColor=none;top=0;left=0;bottom=0;right=0;align=left;spacingLeft=6;overflow=hidden;html=1;whiteSpace=wrap;" vertex="1" parent="YwNAG1RBIBUJRPn3ZiGR-345">
          <mxGeometry x="290" width="130" height="30" as="geometry">
            <mxRectangle width="130" height="30" as="alternateBounds" />
          </mxGeometry>
        </mxCell>
        <mxCell id="YwNAG1RBIBUJRPn3ZiGR-333" style="shape=tableRow;horizontal=0;startSize=0;swimlaneHead=0;swimlaneBody=0;fillColor=none;collapsible=0;dropTarget=0;points=[[0,0.5],[1,0.5]];portConstraint=eastwest;top=0;left=0;right=0;bottom=0;html=1;" vertex="1" parent="YwNAG1RBIBUJRPn3ZiGR-249">
          <mxGeometry y="420" width="420" height="30" as="geometry" />
        </mxCell>
        <mxCell id="YwNAG1RBIBUJRPn3ZiGR-334" style="shape=partialRectangle;connectable=0;fillColor=none;top=0;left=0;bottom=0;right=0;editable=1;overflow=hidden;html=1;whiteSpace=wrap;" vertex="1" parent="YwNAG1RBIBUJRPn3ZiGR-333">
          <mxGeometry width="60" height="30" as="geometry">
            <mxRectangle width="60" height="30" as="alternateBounds" />
          </mxGeometry>
        </mxCell>
        <mxCell id="YwNAG1RBIBUJRPn3ZiGR-335" value="user_flagged_description" style="shape=partialRectangle;connectable=0;fillColor=none;top=0;left=0;bottom=0;right=0;align=left;spacingLeft=6;overflow=hidden;html=1;whiteSpace=wrap;" vertex="1" parent="YwNAG1RBIBUJRPn3ZiGR-333">
          <mxGeometry x="60" width="230" height="30" as="geometry">
            <mxRectangle width="230" height="30" as="alternateBounds" />
          </mxGeometry>
        </mxCell>
        <mxCell id="YwNAG1RBIBUJRPn3ZiGR-336" value="VARCHAR" style="shape=partialRectangle;connectable=0;fillColor=none;top=0;left=0;bottom=0;right=0;align=left;spacingLeft=6;overflow=hidden;html=1;whiteSpace=wrap;" vertex="1" parent="YwNAG1RBIBUJRPn3ZiGR-333">
          <mxGeometry x="290" width="130" height="30" as="geometry">
            <mxRectangle width="130" height="30" as="alternateBounds" />
          </mxGeometry>
        </mxCell>
        <mxCell id="YwNAG1RBIBUJRPn3ZiGR-337" style="shape=tableRow;horizontal=0;startSize=0;swimlaneHead=0;swimlaneBody=0;fillColor=none;collapsible=0;dropTarget=0;points=[[0,0.5],[1,0.5]];portConstraint=eastwest;top=0;left=0;right=0;bottom=0;html=1;" vertex="1" parent="YwNAG1RBIBUJRPn3ZiGR-249">
          <mxGeometry y="450" width="420" height="30" as="geometry" />
        </mxCell>
        <mxCell id="YwNAG1RBIBUJRPn3ZiGR-338" style="shape=partialRectangle;connectable=0;fillColor=none;top=0;left=0;bottom=0;right=0;editable=1;overflow=hidden;html=1;whiteSpace=wrap;" vertex="1" parent="YwNAG1RBIBUJRPn3ZiGR-337">
          <mxGeometry width="60" height="30" as="geometry">
            <mxRectangle width="60" height="30" as="alternateBounds" />
          </mxGeometry>
        </mxCell>
        <mxCell id="YwNAG1RBIBUJRPn3ZiGR-339" value="needs_fetch_review_reason" style="shape=partialRectangle;connectable=0;fillColor=none;top=0;left=0;bottom=0;right=0;align=left;spacingLeft=6;overflow=hidden;html=1;whiteSpace=wrap;" vertex="1" parent="YwNAG1RBIBUJRPn3ZiGR-337">
          <mxGeometry x="60" width="230" height="30" as="geometry">
            <mxRectangle width="230" height="30" as="alternateBounds" />
          </mxGeometry>
        </mxCell>
        <mxCell id="YwNAG1RBIBUJRPn3ZiGR-340" value="VARCHAR" style="shape=partialRectangle;connectable=0;fillColor=none;top=0;left=0;bottom=0;right=0;align=left;spacingLeft=6;overflow=hidden;html=1;whiteSpace=wrap;" vertex="1" parent="YwNAG1RBIBUJRPn3ZiGR-337">
          <mxGeometry x="290" width="130" height="30" as="geometry">
            <mxRectangle width="130" height="30" as="alternateBounds" />
          </mxGeometry>
        </mxCell>
        <mxCell id="YwNAG1RBIBUJRPn3ZiGR-278" style="shape=tableRow;horizontal=0;startSize=0;swimlaneHead=0;swimlaneBody=0;fillColor=none;collapsible=0;dropTarget=0;points=[[0,0.5],[1,0.5]];portConstraint=eastwest;top=0;left=0;right=0;bottom=0;html=1;" vertex="1" parent="YwNAG1RBIBUJRPn3ZiGR-249">
          <mxGeometry y="480" width="420" height="30" as="geometry" />
        </mxCell>
        <mxCell id="YwNAG1RBIBUJRPn3ZiGR-279" style="shape=partialRectangle;connectable=0;fillColor=none;top=0;left=0;bottom=0;right=0;editable=1;overflow=hidden;html=1;whiteSpace=wrap;" vertex="1" parent="YwNAG1RBIBUJRPn3ZiGR-278">
          <mxGeometry width="60" height="30" as="geometry">
            <mxRectangle width="60" height="30" as="alternateBounds" />
          </mxGeometry>
        </mxCell>
        <mxCell id="YwNAG1RBIBUJRPn3ZiGR-280" value="points_not_awarded_reason" style="shape=partialRectangle;connectable=0;fillColor=none;top=0;left=0;bottom=0;right=0;align=left;spacingLeft=6;overflow=hidden;html=1;whiteSpace=wrap;" vertex="1" parent="YwNAG1RBIBUJRPn3ZiGR-278">
          <mxGeometry x="60" width="230" height="30" as="geometry">
            <mxRectangle width="230" height="30" as="alternateBounds" />
          </mxGeometry>
        </mxCell>
        <mxCell id="YwNAG1RBIBUJRPn3ZiGR-281" value="VARCHAR" style="shape=partialRectangle;connectable=0;fillColor=none;top=0;left=0;bottom=0;right=0;align=left;spacingLeft=6;overflow=hidden;html=1;whiteSpace=wrap;" vertex="1" parent="YwNAG1RBIBUJRPn3ZiGR-278">
          <mxGeometry x="290" width="130" height="30" as="geometry">
            <mxRectangle width="130" height="30" as="alternateBounds" />
          </mxGeometry>
        </mxCell>
        <mxCell id="YwNAG1RBIBUJRPn3ZiGR-282" style="shape=tableRow;horizontal=0;startSize=0;swimlaneHead=0;swimlaneBody=0;fillColor=none;collapsible=0;dropTarget=0;points=[[0,0.5],[1,0.5]];portConstraint=eastwest;top=0;left=0;right=0;bottom=0;html=1;" vertex="1" parent="YwNAG1RBIBUJRPn3ZiGR-249">
          <mxGeometry y="510" width="420" height="30" as="geometry" />
        </mxCell>
        <mxCell id="YwNAG1RBIBUJRPn3ZiGR-283" style="shape=partialRectangle;connectable=0;fillColor=none;top=0;left=0;bottom=0;right=0;editable=1;overflow=hidden;html=1;whiteSpace=wrap;" vertex="1" parent="YwNAG1RBIBUJRPn3ZiGR-282">
          <mxGeometry width="60" height="30" as="geometry">
            <mxRectangle width="60" height="30" as="alternateBounds" />
          </mxGeometry>
        </mxCell>
        <mxCell id="YwNAG1RBIBUJRPn3ZiGR-284" value="points_payer_id" style="shape=partialRectangle;connectable=0;fillColor=none;top=0;left=0;bottom=0;right=0;align=left;spacingLeft=6;overflow=hidden;html=1;whiteSpace=wrap;" vertex="1" parent="YwNAG1RBIBUJRPn3ZiGR-282">
          <mxGeometry x="60" width="230" height="30" as="geometry">
            <mxRectangle width="230" height="30" as="alternateBounds" />
          </mxGeometry>
        </mxCell>
        <mxCell id="YwNAG1RBIBUJRPn3ZiGR-285" value="VARCHAR" style="shape=partialRectangle;connectable=0;fillColor=none;top=0;left=0;bottom=0;right=0;align=left;spacingLeft=6;overflow=hidden;html=1;whiteSpace=wrap;" vertex="1" parent="YwNAG1RBIBUJRPn3ZiGR-282">
          <mxGeometry x="290" width="130" height="30" as="geometry">
            <mxRectangle width="130" height="30" as="alternateBounds" />
          </mxGeometry>
        </mxCell>
        <mxCell id="YwNAG1RBIBUJRPn3ZiGR-270" style="shape=tableRow;horizontal=0;startSize=0;swimlaneHead=0;swimlaneBody=0;fillColor=none;collapsible=0;dropTarget=0;points=[[0,0.5],[1,0.5]];portConstraint=eastwest;top=0;left=0;right=0;bottom=0;html=1;" vertex="1" parent="YwNAG1RBIBUJRPn3ZiGR-249">
          <mxGeometry y="540" width="420" height="29" as="geometry" />
        </mxCell>
        <mxCell id="YwNAG1RBIBUJRPn3ZiGR-271" style="shape=partialRectangle;connectable=0;fillColor=none;top=0;left=0;bottom=0;right=0;editable=1;overflow=hidden;html=1;whiteSpace=wrap;" vertex="1" parent="YwNAG1RBIBUJRPn3ZiGR-270">
          <mxGeometry width="60" height="29" as="geometry">
            <mxRectangle width="60" height="29" as="alternateBounds" />
          </mxGeometry>
        </mxCell>
        <mxCell id="YwNAG1RBIBUJRPn3ZiGR-272" value="target_price" style="shape=partialRectangle;connectable=0;fillColor=none;top=0;left=0;bottom=0;right=0;align=left;spacingLeft=6;overflow=hidden;html=1;whiteSpace=wrap;" vertex="1" parent="YwNAG1RBIBUJRPn3ZiGR-270">
          <mxGeometry x="60" width="230" height="29" as="geometry">
            <mxRectangle width="230" height="29" as="alternateBounds" />
          </mxGeometry>
        </mxCell>
        <mxCell id="YwNAG1RBIBUJRPn3ZiGR-273" value="DECIMAL(10,2)" style="shape=partialRectangle;connectable=0;fillColor=none;top=0;left=0;bottom=0;right=0;align=left;spacingLeft=6;overflow=hidden;html=1;whiteSpace=wrap;" vertex="1" parent="YwNAG1RBIBUJRPn3ZiGR-270">
          <mxGeometry x="290" width="130" height="29" as="geometry">
            <mxRectangle width="130" height="29" as="alternateBounds" />
          </mxGeometry>
        </mxCell>
        <mxCell id="YwNAG1RBIBUJRPn3ZiGR-274" style="shape=tableRow;horizontal=0;startSize=0;swimlaneHead=0;swimlaneBody=0;fillColor=none;collapsible=0;dropTarget=0;points=[[0,0.5],[1,0.5]];portConstraint=eastwest;top=0;left=0;right=0;bottom=0;html=1;" vertex="1" parent="YwNAG1RBIBUJRPn3ZiGR-249">
          <mxGeometry y="569" width="420" height="30" as="geometry" />
        </mxCell>
        <mxCell id="YwNAG1RBIBUJRPn3ZiGR-275" style="shape=partialRectangle;connectable=0;fillColor=none;top=0;left=0;bottom=0;right=0;editable=1;overflow=hidden;html=1;whiteSpace=wrap;" vertex="1" parent="YwNAG1RBIBUJRPn3ZiGR-274">
          <mxGeometry width="60" height="30" as="geometry">
            <mxRectangle width="60" height="30" as="alternateBounds" />
          </mxGeometry>
        </mxCell>
        <mxCell id="YwNAG1RBIBUJRPn3ZiGR-276" value="original_receipt_item_text" style="shape=partialRectangle;connectable=0;fillColor=none;top=0;left=0;bottom=0;right=0;align=left;spacingLeft=6;overflow=hidden;html=1;whiteSpace=wrap;" vertex="1" parent="YwNAG1RBIBUJRPn3ZiGR-274">
          <mxGeometry x="60" width="230" height="30" as="geometry">
            <mxRectangle width="230" height="30" as="alternateBounds" />
          </mxGeometry>
        </mxCell>
        <mxCell id="YwNAG1RBIBUJRPn3ZiGR-277" value="VARCHAR" style="shape=partialRectangle;connectable=0;fillColor=none;top=0;left=0;bottom=0;right=0;align=left;spacingLeft=6;overflow=hidden;html=1;whiteSpace=wrap;" vertex="1" parent="YwNAG1RBIBUJRPn3ZiGR-274">
          <mxGeometry x="290" width="130" height="30" as="geometry">
            <mxRectangle width="130" height="30" as="alternateBounds" />
          </mxGeometry>
        </mxCell>
        <mxCell id="YwNAG1RBIBUJRPn3ZiGR-377" style="shape=tableRow;horizontal=0;startSize=0;swimlaneHead=0;swimlaneBody=0;fillColor=none;collapsible=0;dropTarget=0;points=[[0,0.5],[1,0.5]];portConstraint=eastwest;top=0;left=0;right=0;bottom=0;html=1;" vertex="1" parent="YwNAG1RBIBUJRPn3ZiGR-249">
          <mxGeometry y="599" width="420" height="30" as="geometry" />
        </mxCell>
        <mxCell id="YwNAG1RBIBUJRPn3ZiGR-378" style="shape=partialRectangle;connectable=0;fillColor=none;top=0;left=0;bottom=0;right=0;editable=1;overflow=hidden;html=1;whiteSpace=wrap;" vertex="1" parent="YwNAG1RBIBUJRPn3ZiGR-377">
          <mxGeometry width="60" height="30" as="geometry">
            <mxRectangle width="60" height="30" as="alternateBounds" />
          </mxGeometry>
        </mxCell>
        <mxCell id="YwNAG1RBIBUJRPn3ZiGR-379" value="original_metabrite_quantity_purchased" style="shape=partialRectangle;connectable=0;fillColor=none;top=0;left=0;bottom=0;right=0;align=left;spacingLeft=6;overflow=hidden;html=1;whiteSpace=wrap;" vertex="1" parent="YwNAG1RBIBUJRPn3ZiGR-377">
          <mxGeometry x="60" width="230" height="30" as="geometry">
            <mxRectangle width="230" height="30" as="alternateBounds" />
          </mxGeometry>
        </mxCell>
        <mxCell id="YwNAG1RBIBUJRPn3ZiGR-380" value="INTEGER" style="shape=partialRectangle;connectable=0;fillColor=none;top=0;left=0;bottom=0;right=0;align=left;spacingLeft=6;overflow=hidden;html=1;whiteSpace=wrap;" vertex="1" parent="YwNAG1RBIBUJRPn3ZiGR-377">
          <mxGeometry x="290" width="130" height="30" as="geometry">
            <mxRectangle width="130" height="30" as="alternateBounds" />
          </mxGeometry>
        </mxCell>
        <mxCell id="YwNAG1RBIBUJRPn3ZiGR-373" style="shape=tableRow;horizontal=0;startSize=0;swimlaneHead=0;swimlaneBody=0;fillColor=none;collapsible=0;dropTarget=0;points=[[0,0.5],[1,0.5]];portConstraint=eastwest;top=0;left=0;right=0;bottom=0;html=1;" vertex="1" parent="YwNAG1RBIBUJRPn3ZiGR-249">
          <mxGeometry y="629" width="420" height="30" as="geometry" />
        </mxCell>
        <mxCell id="YwNAG1RBIBUJRPn3ZiGR-374" style="shape=partialRectangle;connectable=0;fillColor=none;top=0;left=0;bottom=0;right=0;editable=1;overflow=hidden;html=1;whiteSpace=wrap;" vertex="1" parent="YwNAG1RBIBUJRPn3ZiGR-373">
          <mxGeometry width="60" height="30" as="geometry">
            <mxRectangle width="60" height="30" as="alternateBounds" />
          </mxGeometry>
        </mxCell>
        <mxCell id="YwNAG1RBIBUJRPn3ZiGR-375" value="deleted" style="shape=partialRectangle;connectable=0;fillColor=none;top=0;left=0;bottom=0;right=0;align=left;spacingLeft=6;overflow=hidden;html=1;whiteSpace=wrap;" vertex="1" parent="YwNAG1RBIBUJRPn3ZiGR-373">
          <mxGeometry x="60" width="230" height="30" as="geometry">
            <mxRectangle width="230" height="30" as="alternateBounds" />
          </mxGeometry>
        </mxCell>
        <mxCell id="YwNAG1RBIBUJRPn3ZiGR-376" value="BOOLEAN" style="shape=partialRectangle;connectable=0;fillColor=none;top=0;left=0;bottom=0;right=0;align=left;spacingLeft=6;overflow=hidden;html=1;whiteSpace=wrap;" vertex="1" parent="YwNAG1RBIBUJRPn3ZiGR-373">
          <mxGeometry x="290" width="130" height="30" as="geometry">
            <mxRectangle width="130" height="30" as="alternateBounds" />
          </mxGeometry>
        </mxCell>
        <mxCell id="YwNAG1RBIBUJRPn3ZiGR-369" style="shape=tableRow;horizontal=0;startSize=0;swimlaneHead=0;swimlaneBody=0;fillColor=none;collapsible=0;dropTarget=0;points=[[0,0.5],[1,0.5]];portConstraint=eastwest;top=0;left=0;right=0;bottom=0;html=1;" vertex="1" parent="YwNAG1RBIBUJRPn3ZiGR-249">
          <mxGeometry y="659" width="420" height="30" as="geometry" />
        </mxCell>
        <mxCell id="YwNAG1RBIBUJRPn3ZiGR-370" style="shape=partialRectangle;connectable=0;fillColor=none;top=0;left=0;bottom=0;right=0;editable=1;overflow=hidden;html=1;whiteSpace=wrap;" vertex="1" parent="YwNAG1RBIBUJRPn3ZiGR-369">
          <mxGeometry width="60" height="30" as="geometry">
            <mxRectangle width="60" height="30" as="alternateBounds" />
          </mxGeometry>
        </mxCell>
        <mxCell id="YwNAG1RBIBUJRPn3ZiGR-371" value="original_final_price" style="shape=partialRectangle;connectable=0;fillColor=none;top=0;left=0;bottom=0;right=0;align=left;spacingLeft=6;overflow=hidden;html=1;whiteSpace=wrap;" vertex="1" parent="YwNAG1RBIBUJRPn3ZiGR-369">
          <mxGeometry x="60" width="230" height="30" as="geometry">
            <mxRectangle width="230" height="30" as="alternateBounds" />
          </mxGeometry>
        </mxCell>
        <mxCell id="YwNAG1RBIBUJRPn3ZiGR-372" value="DECIMAL(10,2)" style="shape=partialRectangle;connectable=0;fillColor=none;top=0;left=0;bottom=0;right=0;align=left;spacingLeft=6;overflow=hidden;html=1;whiteSpace=wrap;" vertex="1" parent="YwNAG1RBIBUJRPn3ZiGR-369">
          <mxGeometry x="290" width="130" height="30" as="geometry">
            <mxRectangle width="130" height="30" as="alternateBounds" />
          </mxGeometry>
        </mxCell>
        <mxCell id="YwNAG1RBIBUJRPn3ZiGR-365" style="shape=tableRow;horizontal=0;startSize=0;swimlaneHead=0;swimlaneBody=0;fillColor=none;collapsible=0;dropTarget=0;points=[[0,0.5],[1,0.5]];portConstraint=eastwest;top=0;left=0;right=0;bottom=0;html=1;" vertex="1" parent="YwNAG1RBIBUJRPn3ZiGR-249">
          <mxGeometry y="689" width="420" height="30" as="geometry" />
        </mxCell>
        <mxCell id="YwNAG1RBIBUJRPn3ZiGR-366" style="shape=partialRectangle;connectable=0;fillColor=none;top=0;left=0;bottom=0;right=0;editable=1;overflow=hidden;html=1;whiteSpace=wrap;" vertex="1" parent="YwNAG1RBIBUJRPn3ZiGR-365">
          <mxGeometry width="60" height="30" as="geometry">
            <mxRectangle width="60" height="30" as="alternateBounds" />
          </mxGeometry>
        </mxCell>
        <mxCell id="YwNAG1RBIBUJRPn3ZiGR-367" value="points_earned" style="shape=partialRectangle;connectable=0;fillColor=none;top=0;left=0;bottom=0;right=0;align=left;spacingLeft=6;overflow=hidden;html=1;whiteSpace=wrap;" vertex="1" parent="YwNAG1RBIBUJRPn3ZiGR-365">
          <mxGeometry x="60" width="230" height="30" as="geometry">
            <mxRectangle width="230" height="30" as="alternateBounds" />
          </mxGeometry>
        </mxCell>
        <mxCell id="YwNAG1RBIBUJRPn3ZiGR-368" value="DECIMAL(10,2)" style="shape=partialRectangle;connectable=0;fillColor=none;top=0;left=0;bottom=0;right=0;align=left;spacingLeft=6;overflow=hidden;html=1;whiteSpace=wrap;" vertex="1" parent="YwNAG1RBIBUJRPn3ZiGR-365">
          <mxGeometry x="290" width="130" height="30" as="geometry">
            <mxRectangle width="130" height="30" as="alternateBounds" />
          </mxGeometry>
        </mxCell>
        <mxCell id="YwNAG1RBIBUJRPn3ZiGR-361" style="shape=tableRow;horizontal=0;startSize=0;swimlaneHead=0;swimlaneBody=0;fillColor=none;collapsible=0;dropTarget=0;points=[[0,0.5],[1,0.5]];portConstraint=eastwest;top=0;left=0;right=0;bottom=0;html=1;" vertex="1" parent="YwNAG1RBIBUJRPn3ZiGR-249">
          <mxGeometry y="719" width="420" height="30" as="geometry" />
        </mxCell>
        <mxCell id="YwNAG1RBIBUJRPn3ZiGR-362" style="shape=partialRectangle;connectable=0;fillColor=none;top=0;left=0;bottom=0;right=0;editable=1;overflow=hidden;html=1;whiteSpace=wrap;" vertex="1" parent="YwNAG1RBIBUJRPn3ZiGR-361">
          <mxGeometry width="60" height="30" as="geometry">
            <mxRectangle width="60" height="30" as="alternateBounds" />
          </mxGeometry>
        </mxCell>
        <mxCell id="YwNAG1RBIBUJRPn3ZiGR-363" style="shape=partialRectangle;connectable=0;fillColor=none;top=0;left=0;bottom=0;right=0;align=left;spacingLeft=6;overflow=hidden;html=1;whiteSpace=wrap;" vertex="1" parent="YwNAG1RBIBUJRPn3ZiGR-361">
          <mxGeometry x="60" width="230" height="30" as="geometry">
            <mxRectangle width="230" height="30" as="alternateBounds" />
          </mxGeometry>
        </mxCell>
        <mxCell id="YwNAG1RBIBUJRPn3ZiGR-364" style="shape=partialRectangle;connectable=0;fillColor=none;top=0;left=0;bottom=0;right=0;align=left;spacingLeft=6;overflow=hidden;html=1;whiteSpace=wrap;" vertex="1" parent="YwNAG1RBIBUJRPn3ZiGR-361">
          <mxGeometry x="290" width="130" height="30" as="geometry">
            <mxRectangle width="130" height="30" as="alternateBounds" />
          </mxGeometry>
        </mxCell>
        <mxCell id="YwNAG1RBIBUJRPn3ZiGR-357" style="shape=tableRow;horizontal=0;startSize=0;swimlaneHead=0;swimlaneBody=0;fillColor=none;collapsible=0;dropTarget=0;points=[[0,0.5],[1,0.5]];portConstraint=eastwest;top=0;left=0;right=0;bottom=0;html=1;" vertex="1" parent="YwNAG1RBIBUJRPn3ZiGR-249">
          <mxGeometry y="749" width="420" height="30" as="geometry" />
        </mxCell>
        <mxCell id="YwNAG1RBIBUJRPn3ZiGR-358" style="shape=partialRectangle;connectable=0;fillColor=none;top=0;left=0;bottom=0;right=0;editable=1;overflow=hidden;html=1;whiteSpace=wrap;" vertex="1" parent="YwNAG1RBIBUJRPn3ZiGR-357">
          <mxGeometry width="60" height="30" as="geometry">
            <mxRectangle width="60" height="30" as="alternateBounds" />
          </mxGeometry>
        </mxCell>
        <mxCell id="YwNAG1RBIBUJRPn3ZiGR-359" style="shape=partialRectangle;connectable=0;fillColor=none;top=0;left=0;bottom=0;right=0;align=left;spacingLeft=6;overflow=hidden;html=1;whiteSpace=wrap;" vertex="1" parent="YwNAG1RBIBUJRPn3ZiGR-357">
          <mxGeometry x="60" width="230" height="30" as="geometry">
            <mxRectangle width="230" height="30" as="alternateBounds" />
          </mxGeometry>
        </mxCell>
        <mxCell id="YwNAG1RBIBUJRPn3ZiGR-360" style="shape=partialRectangle;connectable=0;fillColor=none;top=0;left=0;bottom=0;right=0;align=left;spacingLeft=6;overflow=hidden;html=1;whiteSpace=wrap;" vertex="1" parent="YwNAG1RBIBUJRPn3ZiGR-357">
          <mxGeometry x="290" width="130" height="30" as="geometry">
            <mxRectangle width="130" height="30" as="alternateBounds" />
          </mxGeometry>
        </mxCell>
        <mxCell id="YwNAG1RBIBUJRPn3ZiGR-307" value="" style="edgeStyle=elbowEdgeStyle;fontSize=12;html=1;endArrow=ERoneToMany;rounded=0;exitX=0;exitY=0.5;exitDx=0;exitDy=0;entryX=0;entryY=0.5;entryDx=0;entryDy=0;endSize=25;" edge="1" parent="1" source="YwNAG1RBIBUJRPn3ZiGR-18" target="YwNAG1RBIBUJRPn3ZiGR-40">
          <mxGeometry width="100" height="100" relative="1" as="geometry">
            <mxPoint x="530" y="420" as="sourcePoint" />
            <mxPoint x="630" y="320" as="targetPoint" />
            <Array as="points">
              <mxPoint x="-260" y="70" />
            </Array>
          </mxGeometry>
        </mxCell>
        <mxCell id="YwNAG1RBIBUJRPn3ZiGR-308" value="" style="edgeStyle=elbowEdgeStyle;fontSize=12;html=1;endArrow=ERoneToMany;startArrow=ERoneToMany;rounded=0;exitX=1;exitY=0.5;exitDx=0;exitDy=0;entryX=0;entryY=0.5;entryDx=0;entryDy=0;endSize=25;startSize=25;" edge="1" parent="1" source="YwNAG1RBIBUJRPn3ZiGR-43" target="YwNAG1RBIBUJRPn3ZiGR-254">
          <mxGeometry width="100" height="100" relative="1" as="geometry">
            <mxPoint x="530" y="420" as="sourcePoint" />
            <mxPoint x="630" y="320" as="targetPoint" />
          </mxGeometry>
        </mxCell>
        <mxCell id="YwNAG1RBIBUJRPn3ZiGR-309" value="" style="edgeStyle=elbowEdgeStyle;fontSize=12;html=1;endArrow=ERoneToMany;rounded=0;exitX=0;exitY=0.5;exitDx=0;exitDy=0;entryX=1;entryY=0.5;entryDx=0;entryDy=0;endSize=25;" edge="1" parent="1" source="YwNAG1RBIBUJRPn3ZiGR-213" target="YwNAG1RBIBUJRPn3ZiGR-250">
          <mxGeometry width="100" height="100" relative="1" as="geometry">
            <mxPoint x="20" y="-105" as="sourcePoint" />
            <mxPoint x="-189" y="265" as="targetPoint" />
            <Array as="points">
              <mxPoint x="1030" y="220" />
            </Array>
          </mxGeometry>
        </mxCell>
        <mxCell id="YwNAG1RBIBUJRPn3ZiGR-310" value="" style="edgeStyle=elbowEdgeStyle;fontSize=12;html=1;endArrow=ERoneToMany;rounded=0;exitX=1;exitY=0.5;exitDx=0;exitDy=0;entryX=1;entryY=0.5;entryDx=0;entryDy=0;endSize=25;" edge="1" parent="1" source="YwNAG1RBIBUJRPn3ZiGR-28" target="YwNAG1RBIBUJRPn3ZiGR-217">
          <mxGeometry width="100" height="100" relative="1" as="geometry">
            <mxPoint x="30" y="-95" as="sourcePoint" />
            <mxPoint x="-179" y="275" as="targetPoint" />
            <Array as="points">
              <mxPoint x="1910" y="180" />
            </Array>
          </mxGeometry>
        </mxCell>
        <mxCell id="YwNAG1RBIBUJRPn3ZiGR-311" value="" style="edgeStyle=elbowEdgeStyle;fontSize=12;html=1;endArrow=ERoneToMany;rounded=0;exitX=1;exitY=0.5;exitDx=0;exitDy=0;entryX=0;entryY=0.5;entryDx=0;entryDy=0;endSize=25;" edge="1" parent="1" source="YwNAG1RBIBUJRPn3ZiGR-86" target="YwNAG1RBIBUJRPn3ZiGR-31">
          <mxGeometry width="100" height="100" relative="1" as="geometry">
            <mxPoint x="40" y="-85" as="sourcePoint" />
            <mxPoint x="-169" y="285" as="targetPoint" />
          </mxGeometry>
        </mxCell>
        <mxCell id="YwNAG1RBIBUJRPn3ZiGR-312" value="" style="edgeStyle=elbowEdgeStyle;fontSize=12;html=1;endArrow=ERoneToMany;rounded=0;entryX=0;entryY=0.5;entryDx=0;entryDy=0;endSize=25;exitX=1;exitY=0.5;exitDx=0;exitDy=0;" edge="1" parent="1" source="YwNAG1RBIBUJRPn3ZiGR-183" target="YwNAG1RBIBUJRPn3ZiGR-95">
          <mxGeometry width="100" height="100" relative="1" as="geometry">
            <mxPoint x="1010" y="-70" as="sourcePoint" />
            <mxPoint x="-159" y="295" as="targetPoint" />
            <Array as="points" />
          </mxGeometry>
        </mxCell>
        <mxCell id="YwNAG1RBIBUJRPn3ZiGR-313" value="Dimension Table" style="rounded=1;whiteSpace=wrap;html=1;fillColor=#d5e8d4;strokeColor=#82b366;" vertex="1" parent="1">
          <mxGeometry x="-537" y="-164" width="120" height="60" as="geometry" />
        </mxCell>
        <mxCell id="YwNAG1RBIBUJRPn3ZiGR-314" value="Measure Table" style="rounded=1;whiteSpace=wrap;html=1;fillColor=#d0cee2;strokeColor=#56517e;" vertex="1" parent="1">
          <mxGeometry x="-537" y="-64" width="120" height="60" as="geometry" />
        </mxCell>
        <mxCell id="YwNAG1RBIBUJRPn3ZiGR-315" value="Bridge Table" style="rounded=1;whiteSpace=wrap;html=1;fillColor=#f8cecc;gradientColor=#ea6b66;strokeColor=#b85450;" vertex="1" parent="1">
          <mxGeometry x="-537" y="36" width="120" height="60" as="geometry" />
        </mxCell>
        <mxCell id="YwNAG1RBIBUJRPn3ZiGR-319" value="Legend" style="text;html=1;align=center;verticalAlign=middle;whiteSpace=wrap;rounded=0;strokeWidth=5;fontSize=20;fontStyle=1" vertex="1" parent="1">
          <mxGeometry x="-577" y="-230" width="200" height="30" as="geometry" />
        </mxCell>
        <mxCell id="YwNAG1RBIBUJRPn3ZiGR-324" value="All tables assume that Primary is key is unique and not null" style="text;html=1;align=center;verticalAlign=middle;whiteSpace=wrap;rounded=0;" vertex="1" parent="1">
          <mxGeometry x="-670" y="130" width="350" height="30" as="geometry" />
        </mxCell>
      </root>
    </mxGraphModel>
  </diagram>
</mxfile>
